<svg xmlns="http://www.w3.org/2000/svg" xmlns:xlink="http://www.w3.org/1999/xlink" version="1.1" id="Layer_1" x="0px" y="0px" width="100%" viewBox="0 0 225 225" enable-background="new 0 0 225 225" xml:space="preserve">
<path fill="#2597CE" opacity="1.000000" stroke="none" d=" M101.000000,1.000000   C109.020897,1.000000 117.041801,1.000000 125.726822,1.345462   C150.088226,4.850730 171.168106,13.909501 188.873947,30.101250   C206.382523,46.112606 218.249924,65.523239 222.674805,89.087784   C221.394440,88.734566 220.137192,88.555710 219.421677,87.837311   C206.901962,75.267090 194.448563,62.630829 181.752808,49.746071   C179.631500,46.058559 176.709564,44.896019 172.848541,44.927197   C157.913055,45.047817 142.975998,44.971767 128.039536,44.976822   C119.337120,44.979771 117.515297,46.616131 116.464966,54.961685   C114.069786,53.257591 111.991653,51.637249 109.651016,49.791260   C107.636040,45.966885 104.652718,44.909172 100.810089,44.934223   C85.361160,45.034950 69.911125,44.954094 54.461594,44.985332   C47.395214,44.999619 44.995502,47.453350 44.983242,54.639740   C44.957451,69.757042 45.108032,84.876305 44.893368,99.990608   C44.829891,104.459846 46.166965,107.705757 50.170868,110.203644   C51.899715,112.591736 53.472385,114.686783 54.645782,116.874969   C47.371704,117.293983 45.000088,119.652084 44.986149,126.391121   C44.953865,141.998978 45.023827,157.607178 44.947937,173.214737   C44.925114,177.908112 47.014206,180.846008 51.635017,182.571289   C53.288055,184.497894 54.644775,186.180328 56.182602,187.676666   C66.607048,197.819916 77.110649,207.882324 87.473091,218.088196   C88.921791,219.514999 89.737907,221.584091 90.437622,223.344772   C49.373764,216.303024 13.333010,180.897873 3.937704,138.801117   C3.054958,134.845871 1.983721,130.932709 1.000000,127.000000   C1.000000,118.312439 1.000000,109.624870 1.344667,100.283691   C1.806265,99.147232 1.948532,98.668945 2.036531,98.180878   C10.795959,49.598934 38.691528,18.185537 86.227898,4.466617   C91.081192,3.065964 96.072655,2.144061 101.000000,1.000000  z"/>
<path fill="#1489C9" opacity="1.000000" stroke="none" d=" M181.980743,50.008926   C194.448563,62.630829 206.901962,75.267090 219.421677,87.837311   C220.137192,88.555710 221.394440,88.734566 222.822174,89.453079   C224.163193,93.494423 225.081589,97.247208 226.000000,101.000000   C226.000000,109.354233 226.000000,117.708466 225.651337,126.709999   C222.639999,136.943787 219.977310,146.530273 217.005035,155.947388   C206.878021,146.098587 197.088623,136.390411 187.213348,126.770363   C185.710434,125.306290 183.809418,124.250839 181.941650,122.704407   C180.186142,120.626411 178.581512,118.850410 176.816254,116.785751   C175.096313,114.412971 173.537003,112.328842 172.377502,110.162872   C179.779953,109.649666 182.022354,107.323898 182.063278,100.339142   C182.077637,97.888031 181.951859,95.436104 181.948318,92.520058   C181.997971,78.040016 181.989365,64.024475 181.980743,50.008926  z"/>
<path fill="#1489C9" opacity="1.000000" stroke="none" d=" M90.846848,223.355865   C89.737907,221.584091 88.921791,219.514999 87.473091,218.088196   C77.110649,207.882324 66.607048,197.819916 56.182602,187.676666   C54.644775,186.180328 53.288055,184.497894 51.714279,182.503571   C51.581009,182.105576 51.768135,182.197861 51.969612,182.263550   C52.461502,182.369095 52.734806,182.317780 53.456825,182.115463   C65.596687,181.991394 77.270721,181.927185 89.409790,181.945755   C92.985893,182.045364 96.096977,182.080185 99.208000,182.075546   C107.614586,182.063004 109.553879,180.281601 110.558838,172.067062   C112.934464,173.766190 114.997772,175.375351 117.308441,177.206299   C119.373268,178.988388 121.190727,180.548706 123.087975,182.435181   C124.638580,184.535492 125.999489,186.416122 127.598267,188.066269   C137.073288,197.845840 146.603485,207.571945 155.867828,217.568390   C149.486786,219.673340 143.385452,221.644348 137.207672,223.336151   C133.196136,224.434723 129.073090,225.126160 125.000000,226.000000   C117.312424,226.000000 109.624847,226.000000 101.298019,225.646851   C97.388123,224.647751 94.117485,224.001801 90.846848,223.355865  z"/>







<path fill="#0182C5" opacity="1.000000" stroke="none" d=" M109.819458,157.944565   C109.874863,146.976456 110.009651,136.007919 109.951286,125.040413   C109.923203,119.763908 106.935379,117.058517 101.345726,117.030075   C86.219612,116.953117 71.093086,116.954010 55.505890,116.852928   C53.472385,114.686783 51.899715,112.591736 50.170868,110.203636   C63.686565,109.928764 77.358444,109.946945 91.951477,109.987274   C95.993599,110.017311 99.119225,110.137131 102.234436,110.007103   C107.014000,109.807594 109.849396,107.023468 110.003494,102.287949   C110.115402,98.849152 109.907990,95.399963 109.842957,91.955414   C109.871841,78.287636 109.900726,64.619858 109.921570,50.484489   C111.991653,51.637249 114.069786,53.257591 116.464966,54.961685   C116.859108,70.004318 116.942528,84.963173 117.010658,99.922104   C117.045830,107.644623 119.356606,109.976936 127.115501,109.982529   C138.421722,109.990669 149.727982,109.970100 161.946350,109.973358   C165.898209,110.071533 168.937958,110.158127 171.977692,110.244720   C173.537003,112.328842 175.096313,114.412971 176.349167,116.791672   C159.401443,117.062042 142.760147,117.011452 126.118935,117.026840   C119.620872,117.032852 117.030937,119.617653 117.024574,126.061981   C117.007820,143.036148 117.045235,160.010345 117.061081,176.984528   C114.997772,175.375351 112.934464,173.766190 110.487892,171.608185   C110.009575,166.687759 109.914520,162.316162 109.819458,157.944565  z"/>
<path fill="#0282C5" opacity="1.000000" stroke="none" d=" M217.005035,155.947388   C208.027405,179.842926 191.843201,197.637589 170.158951,210.596985   C165.924240,213.127823 161.295120,214.998734 156.481522,217.245026   C146.603485,207.571945 137.073288,197.845840 127.598267,188.066269   C125.999489,186.416122 124.638580,184.535492 123.554764,182.397186   C134.618057,181.979355 145.294373,181.925705 156.435699,181.944702   C162.679886,182.025146 168.461319,182.136932 174.237457,182.008865   C179.138580,181.900192 181.933197,179.151443 182.009979,174.307877   C182.106735,168.204468 181.940125,162.096863 181.952484,155.526993   C182.042725,144.377411 182.067642,133.691895 182.092545,123.006386   C183.809418,124.250839 185.710434,125.306290 187.213348,126.770363   C197.088623,136.390411 206.878021,146.098587 217.005035,155.947388  z"/>




<path fill="#5F5761" opacity="1.000000" stroke="none" d=" M164.614273,78.609207   C162.390091,80.213005 160.175110,82.334991 157.796005,82.538574   C151.532074,83.074570 145.196793,82.776711 138.435455,82.941116   C135.181641,82.112228 132.051849,80.681465 133.428268,77.338730   C134.130112,75.634216 137.388626,74.197685 139.589401,74.044243   C145.856873,73.607269 152.176147,73.974899 158.471878,73.856972   C161.729187,73.795959 163.969757,74.784065 164.614273,78.609207  z"/>

<path fill="#5D555F" opacity="1.000000" stroke="none" d=" M94.114738,77.623634   C92.820305,84.311325 87.311028,82.113129 83.297585,82.950378   C81.661064,86.703789 84.607483,92.266739 78.307922,94.078720   C76.615662,93.039772 75.276184,91.879135 73.900085,89.948303   C73.863457,87.127075 73.863457,85.076050 73.863457,82.640594   C71.148994,82.795525 69.069588,82.914207 66.990181,83.032890   C65.979507,82.487709 64.456085,82.179825 64.070000,81.345581   C63.369251,79.831444 62.883362,77.897446 63.239624,76.353737   C63.410194,75.614647 65.739426,74.898445 67.042786,74.976517   C73.445709,75.360062 73.572151,75.103210 74.085892,68.793976   C74.253387,66.736938 76.050514,64.812607 77.102318,62.827576   C78.983383,64.007454 80.864449,65.187332 82.765572,67.108612   C82.785629,70.179390 82.785629,72.508766 82.785629,75.029083   C85.925659,74.463417 87.997208,74.090233 90.068756,73.717056   C91.381126,74.909821 92.693489,76.102585 94.114738,77.623634  z"/>


<path fill="#5C545E" opacity="1.000000" stroke="none" d=" M90.840904,140.698013   C89.030647,143.582275 87.043594,146.168671 85.056870,148.761581   C86.405434,152.469086 94.056595,154.735046 88.971657,159.662735   C84.145668,164.339478 82.034233,157.137268 78.413589,155.562897   C75.918892,157.333069 73.286400,159.201019 70.299858,161.171204   C65.025208,158.610870 64.587936,156.527115 68.161270,152.618622   C69.373199,151.293030 70.638649,150.016373 71.655128,148.952362   C69.966034,144.955124 62.377712,142.833221 67.479904,137.801819   C72.151505,133.195068 74.481598,140.149597 77.516991,141.684113   C80.904510,139.926590 83.995094,138.051224 87.327644,136.843536   C87.930939,136.624908 89.526588,139.144638 90.840904,140.698013  z"/>

<path fill="#605762" opacity="1.000000" stroke="none" d=" M164.666489,140.724152   C163.730972,142.309509 162.657791,143.567581 161.151947,144.774689   C160.465668,144.646515 160.235367,144.705658 160.028336,144.901154   C152.644577,144.985077 145.260834,145.069000 137.409424,145.223663   C135.675064,143.429031 134.408386,141.563675 133.141693,139.698303   C135.144257,138.558945 137.090866,136.574173 139.159790,136.437195   C145.618622,136.009613 152.123886,136.308868 158.610779,136.268188   C161.602631,136.249435 163.796478,137.241608 164.666489,140.724152  z"/>
<path fill="#5F5761" opacity="1.000000" stroke="none" d=" M160.031204,160.884964   C152.646179,160.958252 145.261154,161.031540 137.410217,161.186813   C135.697662,159.411819 133.172699,157.327637 133.454468,155.742325   C134.174973,151.688522 138.101196,152.372986 141.614441,152.146851   C147.678833,152.153732 153.356812,152.008286 158.983856,152.475876   C160.761871,152.623642 163.354630,154.096130 163.832291,155.539062   C164.282974,156.900650 162.442535,159.020645 161.166168,160.763321   C160.470413,160.637268 160.240005,160.692383 160.031204,160.884964  z"/>
<path fill="#4D4552" opacity="1.000000" stroke="none" d=" M160.263092,160.922028   C160.240005,160.692383 160.470413,160.637268 160.835541,160.778671   C160.948654,160.837723 160.494965,160.959076 160.263092,160.922028  z"/>

</svg>