<svg xmlns="http://www.w3.org/2000/svg" xmlns:xlink="http://www.w3.org/1999/xlink" version="1.1" id="Layer_1" x="0px" y="0px" width="100%" viewBox="0 0 512 512" enable-background="new 0 0 512 512" xml:space="preserve">

<path fill="#1E88E5" opacity="1.000000" stroke="none" d=" M166.468658,513.000000   C159.007492,509.334076 151.415085,506.473694 145.161224,501.815979   C135.452774,494.585449 129.218735,484.128937 129.185043,472.031921   C128.872055,359.708496 128.955032,247.383743 129.094543,135.059601   C129.104538,127.006203 132.768051,119.755447 137.337112,113.247795   C144.231537,103.428200 153.806488,97.446541 165.532089,94.928246   C167.250961,94.559090 168.994720,94.039192 170.727188,94.038338   C259.220062,93.994774 347.713501,93.851105 436.205292,94.164513   C449.111176,94.210220 459.708649,101.004372 467.931732,110.841621   C476.551666,121.153610 479.013489,133.545258 479.011047,146.649567   C478.991333,252.141098 479.046478,357.632660 478.945801,463.124115   C478.932007,477.568909 474.687531,490.674866 463.690369,500.712799   C457.318451,506.528931 450.033264,510.943359 441.124298,512.624329   C349.645782,513.000000 258.291534,513.000000 166.468658,513.000000  M176.000000,380.500000   C176.000000,408.928436 176.000000,437.356873 176.000000,465.711945   C261.311310,465.711945 346.047363,465.711945 430.712402,465.711945   C430.712402,357.355011 430.712402,249.286362 430.712402,141.288147   C345.688477,141.288147 260.952454,141.288147 176.000000,141.288147   C176.000000,220.884064 176.000000,300.192047 176.000000,380.500000  z"/>
<path fill="#1E88E5" opacity="1.000000" stroke="none" d=" M361.531342,1.000000   C362.000000,16.472937 362.000000,31.945873 362.000000,47.780151   C269.076965,47.780151 176.363846,47.780151 83.294785,47.780151   C83.294785,156.516098 83.294785,264.891235 83.294785,373.633118   C67.091316,373.633118 51.239128,373.633118 35.000000,373.633118   C35.000000,372.140503 35.000000,370.684174 35.000000,369.227875   C35.000000,263.103149 34.953747,156.978394 35.054295,50.853775   C35.067974,36.412212 39.327900,23.317604 50.315170,13.280550   C56.684422,7.462135 63.982449,3.080792 72.875702,1.375661   C169.020889,1.000000 265.041779,1.000000 361.531342,1.000000  z"/>

</svg>
