<svg xmlns="http://www.w3.org/2000/svg" xmlns:xlink="http://www.w3.org/1999/xlink" version="1.1" x="0px" y="0px" width="100%" viewBox="0 0 150 150" enable-background="new 0 0 150 150" xml:space="preserve">
    <path fill="rgba(0, 0, 0, 0)" opacity="1.000000" stroke="none" d=" M91.000000,151.000000   C61.857235,151.000000 33.214314,150.958221 4.571959,151.066559   C1.799039,151.077042 0.890779,150.769745 0.900395,147.577240   C1.044349,99.784233 1.034018,51.990562 0.915765,4.197404   C0.908644,1.319584 1.631624,0.924331 4.297526,0.929724   C52.090782,1.026403 99.884331,1.024516 147.677612,0.933526   C150.291916,0.928548 151.094894,1.241225 151.087357,4.172537   C150.964233,52.132198 150.973221,100.092323 151.072662,148.052094   C151.078110,150.673111 150.330460,151.068909 147.952454,151.056152   C129.135422,150.955200 110.317589,151.000000 91.000000,151.000000  z"/>
    <path fill="#FE0510" opacity="1.000000" stroke="none" d=" M16.015171,127.594406   C15.389500,122.791283 17.365780,119.574692 20.453056,116.653770   C33.155266,104.636032 45.714687,92.466881 58.466724,80.502739   C60.807846,78.306259 61.034233,77.145973 58.545311,74.817696   C45.411064,62.531193 32.477421,50.030434 19.447935,37.631584   C17.110323,35.407112 15.048482,33.097363 14.779860,29.665586   C14.403472,24.857042 16.140718,21.108147 20.510757,18.976870   C25.255600,16.662802 29.536678,17.749695 33.302704,21.350452   C44.978779,32.514137 56.687225,43.643967 68.362610,54.808376   C76.802582,62.878979 76.785889,62.891991 85.404640,54.679249   C96.858330,43.765102 108.243118,32.777084 119.806976,21.980894   C124.489128,17.609571 130.914474,17.980312 134.985580,22.378096   C138.958405,26.669752 138.802704,32.653728 134.564240,37.221241   C133.659515,38.196201 132.649765,39.073826 131.686584,39.994411   C119.526939,51.616405 107.433807,63.309513 95.150948,74.799805   C92.679291,77.111969 92.804733,78.301476 95.195732,80.544357   C108.556068,93.077042 121.744354,105.793007 135.013336,118.423332   C138.602264,121.839523 140.081070,125.806725 138.278412,130.595840   C136.639862,134.948944 133.301636,137.184692 128.739456,137.434219   C125.197502,137.627945 122.423683,135.944504 119.899986,133.519150   C106.691513,120.825432 93.335205,108.284325 80.223328,95.492310   C77.629730,92.961967 76.252014,92.721878 73.532562,95.384254   C60.800266,107.849289 47.860424,120.103752 34.913631,132.347702   C27.748919,139.123489 19.840908,137.235489 16.015171,127.594406  z"/>
    </svg>
