<svg xmlns="http://www.w3.org/2000/svg" xmlns:xlink="http://www.w3.org/1999/xlink" version="1.1" id="Layer_1" x="0px" y="0px" width="100%" viewBox="0 0 160 160" enable-background="new 0 0 160 160" xml:space="preserve" style="padding-right:5px;">
    <path fill="#888888" opacity="1.000000" stroke="none" d=" M106.222458,142.392273   C70.724854,156.800400 31.885538,138.856094 19.691820,104.443527   C10.862148,79.524818 15.431180,56.527695 33.539669,37.316799   C51.637386,18.117327 74.393303,11.878925 99.702492,19.492476   C124.981209,27.096863 140.439896,44.771740 145.266006,70.750290   C150.878082,100.959595 135.381561,128.936356 106.222458,142.392273  M40.683628,45.191586   C31.511269,55.394993 26.502377,67.478249 26.462288,81.069351   C26.351986,118.463898 59.305870,140.144104 88.272903,135.969681   C119.954910,131.403992 141.854614,100.433647 134.077576,69.647476   C128.963730,49.403786 116.400078,35.702286 96.504692,29.834976   C75.394608,23.609442 56.783169,29.150797 40.683628,45.191586  z"/>
    <path fill="#888888" opacity="1.000000" stroke="none" d=" M71.469711,90.404388   C71.326706,88.467880 71.060165,86.962685 71.162346,85.482956   C71.489441,80.746460 69.631195,78.176064 64.624359,78.336014   C62.732006,78.396469 60.866413,78.273315 60.807224,75.597549   C60.748604,72.947487 62.518219,72.765343 64.466949,72.680107   C71.776474,72.360359 79.101440,72.217804 86.388245,71.616501   C91.202240,71.219254 92.396751,73.328880 92.324036,77.684921   C92.143509,88.499031 92.433220,99.321724 92.202850,110.133911   C92.114098,114.299522 93.523888,116.455490 97.704575,116.620293   C99.724426,116.699921 101.333817,117.133446 101.232201,119.697388   C101.123962,122.428169 99.153351,122.314857 97.326988,122.318993   C86.842583,122.342751 76.358002,122.344765 65.873680,122.303947   C64.089096,122.296997 62.036102,122.529129 61.809528,119.814293   C61.561836,116.846367 63.555908,116.643585 65.679192,116.630516   C70.274017,116.602234 71.658401,113.881264 71.608139,109.790245   C71.530563,103.476532 71.541550,97.161713 71.469711,90.404388  z"/>
    <path fill="#888888" opacity="1.000000" stroke="none" d=" M79.150352,64.941025   C70.692566,62.582130 66.845055,57.127735 68.584358,50.480862   C70.026840,44.968372 74.375496,41.557777 79.788338,41.693752   C85.371407,41.834000 90.155289,45.792660 91.156372,51.100803   C92.132210,56.275017 88.981339,61.963417 83.891037,63.969460   C82.521515,64.509178 80.995453,64.651688 79.150352,64.941025  z"/>
    </svg>
