<svg xmlns="http://www.w3.org/2000/svg" xmlns:xlink="http://www.w3.org/1999/xlink" version="1.1" id="Layer_1" x="0px" y="0px" width="100%" viewBox="0 0 660 660" enable-background="new 0 0 660 660" xml:space="preserve">
<path fill="#888888" opacity="1.000000" stroke="none" d=" M149.550293,434.984924   C149.711929,435.390961 149.873581,435.796997 149.897369,436.844574   C149.828537,437.987122 149.897537,438.488098 149.792480,439.212860   C150.381348,440.689606 151.144287,441.942596 151.948013,443.438965   C151.988800,443.682343 152.279892,444.082062 152.279892,444.082062   C152.279892,444.082062 152.768402,444.004883 152.768402,444.004883   C152.900314,445.352509 153.032242,446.700134 152.916382,448.878510   C152.748810,468.463135 152.829025,487.216980 152.726105,506.221710   C153.356644,508.004791 154.170334,509.537018 155.053223,511.355164   C155.318695,512.402283 155.514938,513.163452 155.587799,514.171753   C156.284653,515.332825 157.104889,516.246887 157.979004,517.484985   C158.250763,518.184814 158.468628,518.560486 158.593445,519.246094   C160.351059,521.216797 162.201721,522.877502 164.238403,524.707886   C164.582550,524.934082 164.740662,524.990479 165.002686,525.382080   C166.723083,526.515564 168.339569,527.313843 169.955429,528.068604   C169.954803,528.025085 169.890228,528.083374 169.968750,528.367493   C171.029770,529.095154 172.012268,529.538757 173.382599,530.106567   C174.544952,530.120300 175.319504,530.009644 176.094040,529.899048   C176.094040,529.899048 176.530106,529.945190 176.776886,530.390625   C179.846024,531.521240 182.667770,532.802429 185.490829,532.805298   C285.621613,532.908142 385.752533,532.891968 485.883423,532.885498   C487.381927,532.885376 488.990540,533.122375 490.348083,532.661072   C491.718506,532.195435 492.839905,530.996826 494.070404,530.119385   C494.070404,530.119385 494.493927,529.978699 495.058899,530.163208   C496.410614,530.250366 497.197418,530.152954 498.201599,530.221863   C499.374969,529.637756 500.330872,528.887268 501.587982,528.044556   C503.259369,527.010498 504.629578,526.068787 506.361023,525.092163   C508.207397,523.371643 509.692566,521.685974 511.390869,519.777893   C512.401428,518.367249 513.198792,517.179016 514.281067,515.914429   C515.043030,514.892273 515.520203,513.946472 516.110474,512.632935   C516.090332,511.791809 515.957031,511.318451 515.823730,510.845123   C515.891479,510.436768 515.959167,510.028412 516.325195,509.441650   C516.623474,509.263214 516.985718,508.928040 517.316284,508.795959   C518.313965,505.191040 519.561035,501.718750 519.564148,498.245361   C519.665649,384.001709 519.648254,269.757904 519.644348,155.514145   C519.644287,153.682663 519.918457,151.768356 519.477600,150.042725   C519.026245,148.276123 517.851440,146.694351 516.811279,144.870071   C516.629272,144.708466 516.223267,144.976990 516.223267,144.976990   C516.126953,144.569366 516.030579,144.161758 516.101379,143.125763   C516.193665,142.002396 516.118835,141.507385 516.209106,140.797485   C515.595886,139.692749 514.817505,138.802887 513.952637,137.593445   C512.573242,135.516724 511.280334,133.759598 509.916016,131.670410   C508.229004,130.215286 506.613434,129.092209 504.862427,127.788254   C504.535889,127.371834 504.317657,127.164886 503.973511,126.662125   C500.917450,125.227875 497.960175,124.118027 494.651428,122.923096   C493.347168,122.785408 492.394348,122.732788 491.167480,122.397552   C489.289032,121.817719 487.684845,121.261055 486.080353,121.260384   C385.759705,121.218658 285.439026,121.214317 185.118408,121.283745   C183.266846,121.285027 181.415939,122.213333 179.207718,122.693062   C177.897369,122.794044 176.944016,122.911064 175.745239,122.858826   C173.533661,123.730133 171.567505,124.770691 169.322556,125.828033   C168.709229,126.001282 168.374695,126.157753 167.697144,126.298431   C166.674667,127.296638 165.995193,128.310638 165.315720,129.324631   C165.198868,129.447922 165.082016,129.571228 164.483459,129.578735   C160.176178,130.539398 158.261612,133.182541 157.655914,137.157288   C157.306641,137.476562 157.131485,137.680923 156.714722,137.949722   C156.186996,138.694611 155.925568,139.396225 155.571930,140.370331   C155.310379,141.385849 155.141052,142.128876 154.666229,143.005630   C153.868988,144.772751 153.377213,146.406158 152.800690,148.499634   C152.655334,166.416748 152.584183,183.873749 152.562958,201.330826   C152.561798,202.277725 152.978485,203.225098 153.200653,204.172256   C153.097046,205.834854 152.993439,207.497467 152.474609,209.584305   C151.261551,211.247910 150.196472,212.390274 149.706055,213.741241   C142.708145,233.019257 125.501633,239.846954 107.891975,235.437561   C94.702980,232.135071 83.307465,219.537292 83.570114,203.623535   C83.853317,186.464752 83.849365,169.294052 83.567421,152.135178   C83.297798,135.726196 87.587738,120.722984 95.119316,106.223900   C103.036453,90.982605 114.162743,78.756447 128.209732,69.373634   C146.595673,57.092587 167.348618,51.849358 189.329330,51.828876   C285.312317,51.739449 381.295471,51.834568 477.278442,51.738449   C490.470825,51.725239 503.317780,53.357117 516.054504,56.802311   C531.466064,60.971024 544.573975,69.049667 556.130554,79.705673   C566.615845,89.373917 575.090698,100.655373 579.726013,114.319847   C582.667480,122.990822 585.571533,131.768799 587.289001,140.729446   C588.557373,147.347031 588.047607,154.336914 588.049866,161.161026   C588.084778,269.308594 588.105652,377.456238 588.030579,485.603760   C588.022156,497.690887 589.252686,509.944153 585.318054,521.723145   C582.213379,531.017578 580.007690,540.885864 575.281250,549.308777   C565.056091,567.530762 550.581787,581.750916 531.336243,590.940735   C517.530640,597.533020 503.215271,601.459717 487.994843,601.477295   C397.011017,601.582458 306.026581,601.684875 215.043518,601.404114   C199.350998,601.355652 183.495651,603.720642 167.920532,599.560852   C160.941833,597.697083 153.837158,596.294983 146.887817,594.335205   C143.133652,593.276428 139.586334,591.484192 135.829376,589.724365   C134.788910,588.875000 133.864746,588.324219 132.647614,587.571533   C131.897949,587.248718 131.441269,587.127686 130.890533,586.683350   C128.530502,584.900635 126.264511,583.441223 123.732941,581.825195   C122.138351,580.716064 120.809341,579.763550 119.349533,578.503723   C118.468246,577.548523 117.717766,576.900635 116.748833,576.040588   C116.219406,575.567505 115.908432,575.306641 115.624481,574.758911   C115.085190,574.129578 114.518890,573.787048 113.726089,573.198181   C113.169609,572.651855 112.839630,572.351868 112.559280,571.772095   C112.055328,571.156982 111.501747,570.821594 110.742203,570.231934   C110.231361,569.665588 109.926498,569.353638 109.656403,568.750610   C109.114952,568.079468 108.538719,567.699341 107.725159,567.116760   C107.100189,566.867920 106.712555,566.821533 106.324921,566.775146   C106.324921,566.775146 106.242851,566.749146 106.343323,566.353027   C105.723991,564.980286 105.004189,564.003601 104.362289,562.711914   C102.638947,560.237488 100.837700,558.078064 98.957199,555.583496   C98.650764,554.851746 98.423584,554.455078 98.314827,553.768555   C97.620132,552.657227 96.807007,551.835815 95.944611,550.663940   C95.683563,549.895325 95.471802,549.477051 95.373260,548.759766   C94.670815,547.586243 93.855141,546.711853 92.955170,545.561646   C92.654228,544.545593 92.437592,543.805237 92.353050,542.845337   C91.991302,542.077271 91.497452,541.528809 90.818405,540.715942   C90.189194,538.996765 89.745155,537.541931 89.440475,535.817383   C88.767723,534.265320 87.955612,532.983093 87.106628,531.474182   C87.069756,531.247498 86.794731,530.877441 86.794731,530.877441   C86.794731,530.877441 86.347260,530.989197 86.347260,530.989197   C86.253349,530.551514 86.159439,530.113770 86.242561,529.018127   C86.347031,527.594360 86.274460,526.828613 86.376160,525.790039   C85.761887,523.884094 84.973351,522.250916 84.204872,520.316162   C83.922104,519.348450 83.619270,518.682434 83.316437,518.016418   C83.257210,517.541809 83.197983,517.067200 83.341087,515.851929   C83.438141,513.100708 83.332870,511.090118 83.435379,508.723572   C83.664536,490.327484 83.705368,472.287323 83.686790,454.247253   C83.683922,451.466858 83.408020,448.686707 83.333908,445.551392   C83.647972,443.550842 83.886520,441.905365 84.418205,440.087097   C85.291054,438.595215 85.870766,437.276062 86.614487,435.673981   C86.870735,434.967285 86.962982,434.543549 87.369537,433.989868   C88.415215,432.562225 89.146576,431.264526 89.921448,429.957336   C89.964958,429.947876 89.929871,429.866028 90.222961,429.791321   C90.982224,429.139282 91.448387,428.561981 92.087738,427.714783   C92.234207,427.042847 92.207489,426.640869 92.180771,426.238861   C92.404602,425.987885 92.628441,425.736938 93.396843,425.449249   C94.376175,424.729889 94.810944,424.047241 95.245712,423.364594   C95.245712,423.364594 95.260727,423.272949 95.571686,423.389771   C96.249100,423.378387 96.615562,423.250183 97.207199,423.269226   C98.311424,422.621460 99.190468,421.826477 100.412331,420.964142   C101.156204,420.664490 101.557266,420.432159 102.280670,420.310211   C104.455666,419.429138 106.308319,418.437683 108.545067,417.433472   C109.946152,417.299561 110.963142,417.178345 112.322800,417.249634   C116.114487,417.305908 119.563507,417.169708 123.390053,417.113525   C124.791870,417.280396 125.816154,417.367310 127.005081,417.722992   C129.125885,418.721863 131.082062,419.451965 133.343506,420.370575   C135.052048,421.394562 136.455353,422.230072 137.974854,423.381714   C140.720276,426.150238 143.349503,428.602570 146.077820,431.353882   C147.301376,432.763489 148.425842,433.874207 149.550293,434.984924  z"/>
<path fill="#888888" opacity="1.000000" stroke="none" d=" M385.028748,257.982330   C385.823364,258.617523 386.617981,259.252716 387.466553,260.186890   C387.553589,260.657166 387.586670,260.828430 387.500000,261.265167   C388.909302,262.360107 390.438385,263.189545 391.967438,264.018982   C392.244385,264.204193 392.521362,264.389435 392.833313,264.968689   C392.949585,265.553467 393.030823,265.744141 393.127319,266.238770   C394.097900,267.136200 395.053192,267.729706 396.235809,268.447144   C396.780762,268.525513 397.098419,268.479889 397.416077,268.434296   C398.037628,268.920044 398.659149,269.405792 399.409180,270.316528   C399.841187,271.151276 400.144714,271.561005 400.340424,272.255157   C401.954773,273.534668 403.677002,274.529816 405.399200,275.524933   C406.061157,276.046600 406.723114,276.568237 407.634216,277.548584   C409.108002,278.786774 410.332672,279.566223 411.557343,280.345703   C411.695831,280.226257 411.834320,280.106781 411.535706,280.305725   C411.114502,280.803345 411.130432,280.982513 411.067505,281.446289   C412.025452,282.425903 413.062256,283.120941 414.108185,283.846802   C414.117310,283.877594 414.181610,283.877625 414.164917,284.226196   C417.382050,287.104309 420.615875,289.633789 424.128204,292.323853   C425.946259,293.979980 427.485809,295.475616 429.028442,297.310974   C429.764679,297.995209 430.497894,298.339722 431.243835,298.712555   C431.256592,298.740845 431.312836,298.766968 431.264709,299.122223   C431.916107,299.858765 432.615601,300.240051 433.552643,300.759460   C434.201965,301.255310 434.613708,301.613037 435.011688,302.327026   C436.763855,303.996246 438.529785,305.309265 440.460083,306.732361   C440.624420,306.842499 440.954315,307.060944 440.977936,307.383057   C441.664490,308.139374 442.327393,308.573547 443.206116,309.224213   C444.112091,310.175720 444.802216,310.910736 445.356659,311.971649   C446.134766,313.281281 447.048553,314.265015 448.150940,315.514648   C448.577332,316.852661 448.815125,317.924774 448.773499,319.237579   C448.628082,324.650146 448.762115,329.821960 448.853699,335.354919   C446.971375,341.956665 442.080139,345.609741 436.914307,349.248596   C435.746338,350.150909 434.931152,351.133759 433.889832,352.337097   C432.537415,353.497620 431.411133,354.437653 429.936340,355.291931   C429.158936,355.887177 428.730042,356.568207 428.081116,357.490784   C426.439331,359.264771 425.017578,360.797119 423.595825,362.329468   C423.595825,362.329468 423.470459,362.450348 423.185486,362.395721   C422.592865,362.486053 422.285156,362.630981 421.789978,362.574707   C421.104858,362.953156 420.607269,363.532837 419.898621,364.346191   C418.551727,365.502441 417.415833,366.425018 415.930359,367.257568   C414.755157,368.147430 413.929504,369.127350 412.901031,370.305176   C412.138458,371.008942 411.578705,371.514801 410.656067,372.000977   C409.633209,372.742126 408.973206,373.502899 408.124268,374.529358   C405.932159,376.506561 403.928955,378.218048 401.568542,379.926117   C399.820007,381.295410 398.428680,382.668182 396.868835,384.155823   C396.700287,384.270691 396.359253,384.494507 396.007568,384.388367   C394.860168,385.259216 394.064423,386.236206 393.237000,387.208954   C393.205322,387.204681 393.197144,387.268066 392.848206,387.205963   C391.684753,388.115814 390.870300,389.087769 389.820129,390.268982   C388.459015,391.404022 387.333588,392.329834 385.872894,393.189270   C384.943207,393.975433 384.348755,394.828003 383.488861,395.827393   C382.487213,396.655212 381.751007,397.336212 380.652924,397.979858   C378.876801,399.311493 377.462555,400.680542 375.848633,402.278015   C374.869690,403.146271 374.090393,403.786072 372.957520,404.333984   C371.801758,405.220276 370.999573,406.198517 369.950134,407.404297   C366.487701,410.445618 363.272614,413.259399 359.696228,416.004303   C357.209473,417.940796 355.083984,419.946228 352.797302,422.067383   C352.636108,422.183075 352.300629,422.395172 351.953979,422.305176   C351.176819,422.888214 350.746338,423.561218 350.287048,424.249054   C350.258209,424.263855 350.226532,424.320465 349.894653,424.251068   C349.045471,424.791748 348.528137,425.401825 347.826477,426.268127   C346.396179,427.652191 345.150269,428.780060 343.550293,429.903442   C341.781189,431.246643 340.366150,432.594360 338.797668,434.066589   C338.644165,434.191101 338.335754,434.438232 337.985748,434.345367   C336.110504,435.856079 334.585297,437.459625 332.890656,439.188354   C332.721252,439.313477 332.378723,439.558716 332.029510,439.438293   C330.902252,440.296265 330.124176,441.274658 329.312622,442.268921   C329.279144,442.284821 329.230927,442.341125 328.881836,442.263916   C327.726929,443.162842 326.921051,444.138947 325.856995,445.331360   C324.082001,447.146912 322.565247,448.746155 321.048462,450.345398   C320.649139,450.717957 320.249817,451.090515 319.408020,451.365295   C317.967255,452.136902 316.968994,453.006226 315.631653,453.951782   C311.878662,455.490265 308.464691,456.952454 304.638916,458.252594   C302.474670,458.138794 300.722198,458.187073 298.570984,458.173401   C296.366821,457.924774 294.561462,457.738068 292.756104,457.551392   C292.599426,457.481110 292.442749,457.410797 292.126648,456.949463   C291.645813,456.368134 291.324463,456.177887 290.840057,455.683594   C290.044739,455.378265 289.412445,455.377014 288.780151,455.375732   C288.296692,455.083527 287.813232,454.791351 287.223846,453.877197   C286.196716,452.754974 285.275513,452.254669 284.354309,451.754395   C284.070953,451.549011 283.787628,451.343658 283.607269,450.591919   C282.471161,448.503113 281.232056,446.960632 279.821167,445.295502   C279.272125,445.102417 278.894806,445.031982 278.517517,444.961548   C278.323792,444.263336 278.130096,443.565155 278.048706,442.167480   C278.113647,440.645538 278.066193,439.822998 278.279053,438.715027   C278.379089,433.979340 278.093536,429.529449 278.080383,425.078766   C278.026428,406.812134 278.112396,388.544800 277.962036,370.279236   C277.947693,368.534180 276.648712,366.799683 275.627991,364.796692   C273.175995,364.343506 271.042236,363.989777 268.908173,363.988373   C221.008698,363.956696 173.109207,363.956970 125.209709,363.975616   C121.085808,363.977234 116.961983,364.149139 112.838120,364.241943   C112.838120,364.241943 112.819099,364.045959 112.935013,363.646118   C111.607506,362.680084 110.164070,362.113861 108.372391,361.431274   C95.357971,357.526855 84.225266,343.211365 83.704079,330.132019   C83.556030,326.416840 83.222481,322.709015 82.974014,318.997833   C83.077942,318.318298 83.181870,317.638733 83.637512,316.521912   C84.809151,314.650787 85.871605,313.301758 86.407722,311.768707   C88.959282,304.472290 93.884766,299.086853 100.140625,294.612000   C100.786621,294.121643 101.186981,293.543915 101.813751,292.850952   C102.688889,292.511383 103.337601,292.287079 104.215912,292.235352   C105.987793,291.308411 107.530067,290.208893 109.072342,289.109375   C109.072334,289.109375 109.477684,288.962769 109.984444,289.115540   C110.983673,289.229034 111.476151,289.189789 112.325233,289.343811   C116.343216,289.512146 120.004578,289.465851 123.665947,289.465454   C172.307343,289.460114 220.948746,289.468506 269.590149,289.452301   C276.378662,289.450043 277.841736,287.978210 277.847443,281.284332   C277.863678,262.294189 277.841766,243.304047 277.864868,224.313934   C277.869843,220.203018 278.000519,216.092255 278.169128,211.619324   C278.123718,210.802216 277.982483,210.347214 277.841248,209.892212   C277.968323,209.502625 278.095398,209.113037 278.379761,208.638107   C278.536987,208.552765 278.970856,208.541595 279.240112,208.599869   C280.381104,207.124573 281.252869,205.591003 282.423401,203.937119   C283.226562,202.967682 283.730927,202.118546 284.235291,201.269424   C284.235291,201.269424 284.118134,201.146194 284.542358,201.222977   C285.933685,200.637665 286.900787,199.975571 288.162659,199.335785   C288.951141,198.895035 289.444916,198.431976 290.228607,197.862305   C290.720764,197.223495 290.922974,196.691315 291.125214,196.159134   C291.125214,196.159134 291.561981,196.092407 292.179932,196.178741   C294.201355,196.143036 295.604858,196.020996 297.282501,196.088226   C301.383728,196.470596 305.210815,196.663681 309.278015,196.904022   C309.518097,196.951279 309.988983,196.817871 310.278687,196.983521   C311.373260,197.440903 312.178101,197.732620 312.990906,198.011627   C312.998871,197.998932 312.975067,198.018463 313.038055,198.322113   C313.761108,198.970993 314.421173,199.316208 315.387177,199.870300   C317.343628,200.783936 318.994171,201.488708 320.644684,202.193481   C321.260071,202.943542 321.875488,203.693604 322.616028,204.918640   C324.367706,206.364655 325.994293,207.335709 327.620850,208.306747   C328.299530,209.012390 328.978210,209.718018 329.675446,210.986160   C330.916687,212.257797 332.139374,212.966934 333.362091,213.676056   C334.171326,214.395920 334.980530,215.115784 335.879242,216.280640   C336.690308,217.459976 337.411896,218.194305 338.175354,219.253540   C339.450806,220.430298 340.684357,221.282150 342.042969,222.396027   C342.789856,223.099762 343.411621,223.541428 344.063660,224.294769   C344.740692,225.030457 345.387451,225.454468 346.345093,226.047577   C347.636078,226.583435 348.616150,226.950226 349.596252,227.317017   C349.596252,227.317001 349.667023,227.316559 349.466675,227.651794   C350.188843,228.984909 351.111328,229.982803 352.143524,231.332733   C353.310211,231.951126 354.367218,232.217499 355.424194,232.483871   C355.424194,232.483871 355.406799,232.574921 355.257568,232.895935   C356.750214,234.773468 358.392059,236.330002 360.269562,237.959473   C360.505188,238.032425 360.988342,237.937836 360.988342,237.937836   C360.988342,237.937836 360.980438,237.445801 360.980438,237.445801   C360.980438,237.445801 361.309479,237.421417 361.402130,237.760574   C362.180145,238.517456 362.865509,238.935196 363.550873,239.352936   C363.828125,239.540314 364.105408,239.727692 364.458862,240.362289   C364.723297,241.187164 364.911560,241.564835 365.116638,242.259918   C365.830902,242.887009 366.528320,243.196671 367.259949,243.594620   C367.294159,243.682892 367.455139,243.782532 367.408508,244.118317   C368.245728,244.958328 369.129639,245.462555 370.229797,246.128693   C371.100861,246.882462 371.755707,247.474365 372.304504,248.339417   C373.979828,249.583206 375.761108,250.553848 377.542419,251.524475   C377.542419,251.524475 377.447418,251.714996 377.347809,251.993225   C377.976105,252.614456 378.703979,252.957458 379.431885,253.300461   C379.431885,253.300461 379.568146,253.426331 379.423096,253.793732   C379.939819,254.591080 380.601624,255.021042 381.306885,255.549606   C381.350342,255.648209 381.535583,255.758392 381.456848,256.109161   C382.595001,256.967407 383.811890,257.474854 385.028748,257.982330  z"/>
</svg>
