<svg xmlns="http://www.w3.org/2000/svg" xmlns:xlink="http://www.w3.org/1999/xlink" version="1.1" x="0px" y="0px" width="100%" viewBox="0 0 311 311" enable-background="new 0 0 311 311" xml:space="preserve">
    <path fill="rgba(0, 0, 0, 0)" opacity="1.000000" stroke="none" d=" M171.000000,312.000000   C115.333359,312.000000 60.166618,311.959625 5.000321,312.097198   C1.575440,312.105743 0.900468,311.424225 0.904463,307.999969   C1.022283,207.000168 1.022267,106.000160 0.904507,5.000339   C0.900515,1.576757 1.575329,0.900450 4.999880,0.904445   C105.999702,1.022284 206.999710,1.022256 307.999512,0.904528   C311.422791,0.900538 312.099579,1.574891 312.095581,4.999732   C311.977722,105.999550 311.977722,206.999557 312.095428,307.999359   C312.099426,311.422302 311.426880,312.109009 308.000214,312.097961   C262.500488,311.951172 217.000168,312.000000 171.000000,312.000000  z"/>
    <path fill="#4169e1" opacity="1.000000" stroke="none" d=" M212.588440,62.751225   C203.905151,61.807106 197.318359,64.825386 191.542114,70.667397   C173.146027,89.272934 154.611465,107.742149 136.053268,126.186432   C130.662643,131.543976 127.557449,137.786102 128.348419,145.417740   C128.770218,149.487381 125.725365,150.953064 123.608177,153.027985   C121.330856,155.259842 119.174591,159.867798 116.427277,158.862595   C113.518204,157.798218 113.486778,152.886185 112.890381,149.474075   C110.634079,136.565109 114.234146,125.198303 123.279854,115.974342   C142.766052,96.104149 162.411880,76.382927 182.324997,56.941437   C197.565002,42.062393 221.385269,42.463470 236.456772,57.271034   C251.419540,71.971771 252.308945,96.159264 237.592758,111.384216   C217.905685,131.751923 197.864868,151.796082 177.468582,171.452698   C166.175644,182.336105 152.354523,184.355377 137.501022,179.340317   C134.675583,178.386368 133.868240,177.296005 136.440430,175.062469   C138.072174,173.645538 139.615051,172.101028 141.037430,170.473572   C143.872650,167.229599 146.826492,165.301910 151.682220,165.693344   C157.522110,166.164124 162.672089,163.329041 166.853622,159.153671   C186.194168,139.841492 205.643143,120.635231 224.787735,101.130394   C237.990891,87.678795 231.749924,67.824394 212.588440,62.751225  z"/>
    <path fill="#4169e1" opacity="1.000000" stroke="none" d=" M125.359390,180.359985   C113.330795,192.396744 101.505661,204.137421 89.785324,215.981796   C79.940681,225.930618 79.530716,239.891037 88.669243,248.997726   C97.777161,258.073914 111.812653,257.593933 121.709610,247.737167   C140.482590,229.040421 159.169144,210.256866 177.947128,191.565155   C182.793091,186.741470 185.845337,181.129318 185.354355,174.229935   C185.114212,170.855316 186.130493,168.631439 188.465485,166.387619   C191.451920,163.517807 194.064056,160.258469 197.369263,156.574265   C202.845032,167.292648 203.189789,177.088394 199.851089,187.131454   C197.871994,193.084702 194.467590,198.173920 190.034927,202.601547   C170.818253,221.796356 151.686020,241.076416 132.376938,260.177734   C120.836800,271.593658 103.995110,274.511047 89.358406,268.032440   C74.855324,261.612915 65.525002,246.854904 66.195305,230.890778   C66.609032,221.037491 70.263245,212.376877 77.253769,205.349472   C96.761551,185.738739 116.196274,166.050919 135.974030,146.714890   C147.204605,135.735138 160.803604,133.218796 175.776215,137.693924   C179.222443,138.723923 181.039978,140.034164 177.200104,143.019241   C176.025284,143.932526 174.995834,145.060364 174.013992,146.189240   C170.686951,150.014450 167.343384,152.809952 161.436050,152.308777   C155.639404,151.817017 150.620224,155.047577 146.461792,159.252014   C139.548523,166.241776 132.563232,173.160309 125.359390,180.359985  z"/>
    </svg>
