<svg xmlns="http://www.w3.org/2000/svg" xmlns:xlink="http://www.w3.org/1999/xlink" version="1.1" x="0px" y="0px" width="100%" viewBox="0 0 566 566" enable-background="new 0 0 566 566" xml:space="preserve">
    <path fill="#ffffff" opacity="1.000000" stroke="none" d=" M198.287079,151.049698   C228.478516,142.793930 259.173096,138.262146 290.520721,139.173904   C365.215118,141.346436 430.794006,166.985260 487.146484,216.082016   C499.049011,226.452057 500.365234,243.423141 490.396881,254.924133   C480.232697,266.651062 463.062439,267.763916 451.113251,257.288879   C413.054016,223.924927 369.019836,203.376007 318.927765,196.316345   C278.004028,190.548798 237.934387,194.679321 198.600250,208.285278   C198.261002,188.979767 198.274033,170.014725 198.287079,151.049698  z"/>
    <path fill="#ffffff" opacity="1.000000" stroke="none" d=" M198.512405,223.744019   C258.654114,201.640976 318.394592,202.495102 377.588440,227.205948   C399.845245,236.497192 420.071442,249.234818 438.386688,264.954651   C446.558929,271.968872 449.706940,281.004852 447.572540,291.384430   C445.348328,302.200653 438.540405,309.434357 427.765015,312.313171   C418.028778,314.914337 409.477295,312.260162 401.820526,305.786560   C382.117462,289.128082 359.863617,277.035828 335.027161,270.070831   C289.414917,257.279541 245.171722,261.149414 202.490402,281.886444   C201.295807,282.466858 200.101196,283.047241 198.567215,283.315308   C198.194855,276.524414 198.100327,270.045502 198.141754,263.567444   C198.226685,250.292709 198.384567,237.018463 198.512405,223.744019  z"/>
    <path fill="#ffffff" opacity="1.000000" stroke="none" d=" M198.267944,301.030304   C212.528717,295.193054 226.348724,287.655334 241.129456,283.824066   C294.380188,270.021118 343.341278,280.347382 387.230743,313.518127   C402.191986,324.825500 402.323273,345.601013 388.160034,357.052094   C378.222931,365.086273 364.625824,365.007324 353.570007,356.592896   C339.161560,345.626862 323.221893,338.107086 305.381348,334.861725   C272.145386,328.815796 242.067795,336.188354 214.791107,356.027893   C210.752808,358.965149 205.654221,360.444672 200.539474,362.287964   C195.138626,347.151062 185.006042,339.009888 169.341782,337.928131   C169.588730,334.915466 169.835663,331.902802 170.497314,328.447998   C187.289688,325.471008 196.325378,316.560944 198.267944,301.030304  z"/>
    <path fill="#EC1B25" opacity="1.000000" stroke="none" d=" M198.242203,300.560791   C196.325378,316.560944 187.289688,325.471008 170.514374,328.038849   C158.967316,327.735596 150.260559,323.053436 144.005310,312.892151   C139.865799,305.357941 140.722031,297.807159 140.627670,290.380188   C140.484909,279.141754 140.281479,267.904114 140.103851,256.666138   C140.214188,251.168945 140.324539,245.671768 140.306976,239.396255   C140.322372,226.526413 140.567184,214.434952 140.575684,202.343323   C140.582077,193.244690 140.285339,184.145844 140.123535,175.047089   C140.278976,166.893036 140.455597,158.739304 140.585495,150.584839   C140.864075,133.098129 152.763107,120.781281 169.426819,120.760483   C185.728882,120.740128 197.696487,132.970596 198.239853,150.603912   C198.274033,170.014725 198.261002,188.979767 198.274734,208.401550   C198.295837,213.529022 198.290176,218.199722 198.398468,223.307220   C198.384567,237.018463 198.226685,250.292709 198.141754,263.567444   C198.100327,270.045502 198.194855,276.524414 198.267578,283.462402   C198.277039,289.311646 198.246750,294.701447 198.242203,300.560791  z"/>
    <path fill="#ffffff" opacity="1.000000" stroke="none" d=" M281.185852,447.090454   C257.072662,445.244171 239.236145,425.308167 240.117279,401.689178   C240.995193,378.156738 260.494904,359.583038 284.192749,359.706848   C307.875671,359.830536 327.216095,378.517883 327.753052,402.209686   C328.362518,429.099091 305.966248,448.697845 281.185852,447.090454  z"/>
    <path fill="#ffffff" opacity="1.000000" stroke="none" d=" M139.776810,175.138367   C140.285339,184.145844 140.582077,193.244690 140.575684,202.343323   C140.567184,214.434952 140.322372,226.526413 140.141418,238.899597   C132.116287,245.403610 123.908783,251.366364 116.191803,257.907837   C103.954247,268.281189 89.170647,267.746368 78.518173,256.087158   C67.953018,244.523514 68.212563,227.553040 79.562706,217.181320   C97.684792,200.621429 117.819550,186.852539 139.776810,175.138367  z"/>
    <path fill="#EC1D26" opacity="1.000000" stroke="none" d=" M168.907990,337.992126   C185.006042,339.009888 195.138626,347.151062 200.188461,362.292419   C201.740906,374.709961 199.048279,385.382935 189.303772,393.463867   C179.239944,401.809631 164.863739,403.033264 153.854797,396.610138   C142.747162,390.129395 136.384018,377.122925 138.387222,364.993896   C140.641754,351.343170 150.209137,341.356750 163.554398,338.765594   C165.179016,338.450165 166.833542,338.288879 168.907990,337.992126  z"/>
    <path fill="#ffffff" opacity="1.000000" stroke="none" d=" M139.759262,256.786621   C140.281479,267.904114 140.484909,279.141754 140.627670,290.380188   C140.722031,297.807159 139.865799,305.357941 143.835846,312.597351   C132.765335,311.704559 125.158752,305.540375 121.429420,295.244385   C117.622803,284.735016 119.657722,274.874847 127.602119,266.792084   C131.184128,263.147675 135.455887,260.181183 139.759262,256.786621  z"/>
    </svg>
