<svg xmlns="http://www.w3.org/2000/svg" xmlns:xlink="http://www.w3.org/1999/xlink" version="1.1" id="Layer_1" x="0px" y="0px" width="100%" viewBox="0 0 2048 2048" enable-background="new 0 0 2048 2048" xml:space="preserve">
<path fill="#41b3ff" opacity="1.000000" stroke="none" d=" M1089.000000,2049.000000   C1046.645752,2049.000000 1004.291565,2049.000000 961.632080,2048.583740   C960.146606,2047.778931 958.985901,2047.133179 957.782898,2047.041260   C943.812866,2045.973633 929.788391,2045.421265 915.874207,2043.871582   C899.280884,2042.023315 882.744873,2039.565796 866.250061,2036.954834   C848.991699,2034.223022 831.614319,2031.828613 814.640076,2027.805298   C783.102905,2020.330322 751.460693,2012.940186 720.534668,2003.346924   C690.069580,1993.896484 660.183105,1982.399292 630.524597,1970.590088   C608.561401,1961.845215 587.070435,1951.760132 565.920715,1941.170410   C545.335693,1930.863403 525.215698,1919.560303 505.331177,1907.942017   C487.349243,1897.435425 469.641022,1886.386719 452.380981,1874.734375   C421.741760,1854.050171 391.998138,1832.115845 364.178894,1807.690308   C350.150696,1795.373291 335.895996,1783.296387 322.242828,1770.575195   C310.358429,1759.501953 298.976471,1747.866699 287.734650,1736.132812   C274.668762,1722.494629 261.507019,1708.895996 249.277451,1694.522339   C233.650970,1676.156372 218.109558,1657.615356 203.992081,1638.093506   C184.951202,1611.763428 166.183731,1585.104004 149.368637,1557.332764   C132.460770,1529.408447 117.664070,1500.166016 102.764107,1471.080200   C93.527679,1453.050049 85.338440,1434.437256 77.535568,1415.728882   C63.525917,1382.139404 51.505310,1347.801025 41.451286,1312.814575   C32.494343,1281.645508 24.221207,1250.292603 18.953548,1218.239502   C14.924208,1193.721436 10.477242,1169.256714 7.175972,1144.639648   C4.926552,1127.866211 4.372230,1110.867188 2.927341,1093.980469   C2.809968,1092.608765 1.666603,1091.324707 0.999995,1090.000000   C1.000000,1046.979126 1.000000,1003.958191 1.427274,960.559204   C2.244356,956.005798 2.590654,951.825989 3.031740,947.656067   C4.669669,932.171753 6.270330,916.682922 8.019258,901.210999   C9.271630,890.131836 10.306929,879.002380 12.205058,868.027771   C15.484577,849.066711 18.841963,830.090820 23.108877,811.335510   C29.074337,785.114197 35.149113,758.871887 42.594299,733.047119   C49.001328,710.823303 57.357555,689.159363 64.916336,667.270142   C76.198196,634.599304 90.403542,603.151367 105.604584,572.176331   C114.525925,553.997375 124.094727,536.090393 134.279694,518.589111   C146.698395,497.249573 159.540314,476.114380 173.155716,455.523285   C192.547134,426.196808 213.360809,397.856049 236.329727,371.177338   C249.658600,355.695709 262.867310,340.096466 276.640198,325.016083   C286.231506,314.514282 296.423004,304.519043 306.817749,294.801727   C325.918976,276.945312 345.056549,259.103333 364.771637,241.935883   C380.145905,228.548355 396.057770,215.709442 412.392029,203.512314   C429.031677,191.087128 446.389618,179.611542 463.593109,167.956421   C495.436218,146.383118 528.989685,127.698257 563.078857,109.983253   C574.946960,103.815796 587.194397,98.349075 599.427795,92.921082   C617.765442,84.784615 635.921509,76.081940 654.737793,69.218163   C682.597778,59.055450 710.799805,49.740673 739.165466,41.077339   C773.046387,30.729534 807.494934,22.471788 842.540894,16.984949   C866.593567,13.219234 890.626526,9.256885 914.767151,6.150525   C928.965820,4.323475 943.361084,4.039162 957.657043,2.922288   C958.814392,2.831872 959.887634,1.666084 961.000000,1.000000   C1003.354248,1.000000 1045.708496,1.000000 1088.375977,1.418045   C1089.703125,2.222638 1090.694458,2.865664 1091.734375,2.957271   C1107.459717,4.342627 1123.229248,5.319235 1138.911621,7.075847   C1156.163818,9.008284 1173.407104,11.223900 1190.527588,14.076295   C1212.268555,17.698488 1234.079590,21.250111 1255.507935,26.322092   C1295.954712,35.895679 1335.848755,47.455605 1374.925659,61.832161   C1416.123657,76.989159 1456.462402,93.997818 1495.200562,114.677376   C1511.932617,123.609398 1528.707153,132.501221 1545.057129,142.101318   C1578.315308,161.629074 1610.722412,182.518707 1640.952271,206.538727   C1664.791870,225.481064 1688.603394,244.502762 1711.614014,264.428375   C1726.849365,277.621124 1741.053589,292.085876 1754.987549,306.680054   C1773.119873,325.671478 1790.884521,345.044037 1808.130981,364.841827   C1821.496460,380.184509 1834.303345,396.073273 1846.480469,412.375183   C1859.082642,429.246246 1870.974365,446.679565 1882.531738,464.290283   C1893.469604,480.956665 1904.164185,497.840332 1913.889771,515.230225   C1926.166504,537.182007 1937.723999,559.559631 1948.888306,582.101929   C1957.380737,599.249146 1965.630859,616.612305 1972.467407,634.462036   C1983.837646,664.149170 1994.626831,694.095154 2004.485107,724.315613   C2015.951294,759.464661 2024.927979,795.337280 2031.015625,831.850525   C2034.917847,855.256348 2038.808594,878.680237 2041.872559,902.204468   C2044.250122,920.459229 2045.314209,938.884216 2047.077148,957.222534   C2047.171143,958.200928 2048.334473,959.076599 2049.000000,960.000000   C2049.000000,1002.687561 2049.000000,1045.375122 2048.579590,1088.388916   C2047.765503,1093.227417 2047.446045,1097.747925 2046.964722,1102.250977   C2045.341797,1117.431030 2043.707520,1132.610352 2041.987549,1147.779663   C2040.693359,1159.194702 2039.749634,1170.679321 2037.782837,1181.982056   C2034.204468,1202.546143 2030.701904,1223.170044 2025.858765,1243.456421   C2018.713135,1273.386841 2011.552368,1303.400391 2002.302490,1332.717407   C1992.943115,1362.381836 1981.718628,1391.519287 1970.026367,1420.366821   C1960.448853,1443.996704 1949.827759,1467.297241 1938.130493,1489.949097   C1925.095825,1515.190918 1910.972290,1539.933716 1896.110474,1564.149780   C1882.682373,1586.029907 1868.221191,1607.345093 1853.104126,1628.099854   C1838.641113,1647.956421 1823.014038,1666.990356 1807.393188,1685.969727   C1795.857056,1699.985840 1783.832642,1713.636353 1771.430298,1726.892578   C1759.438843,1739.709961 1746.874634,1752.011597 1734.210693,1764.173950   C1722.894165,1775.042480 1711.403198,1785.771362 1699.442139,1795.916748   C1681.420654,1811.202515 1663.056519,1826.093994 1644.595581,1840.849487   C1616.988037,1862.915649 1587.552979,1882.462646 1557.381348,1900.716553   C1532.898193,1915.528687 1507.452759,1928.832153 1481.937866,1941.830933   C1461.679199,1952.151611 1440.816284,1961.334717 1419.961670,1970.427124   C1380.726196,1987.533325 1340.235474,2001.182861 1298.961304,2012.410522   C1276.832520,2018.430298 1254.632812,2024.484375 1232.129883,2028.758789   C1203.890625,2034.122925 1175.360962,2038.077026 1146.854492,2041.872070   C1128.616089,2044.300171 1110.190552,2045.313477 1091.859863,2047.076294   C1090.854248,2047.173096 1089.950928,2048.334229 1089.000000,2049.000000  M1790.345093,1253.155640   C1790.923340,1247.898682 1791.891724,1242.649902 1791.999756,1237.383301   C1792.233643,1225.982788 1792.592773,1214.536255 1791.851196,1203.177246   C1791.005371,1190.222778 1790.265503,1177.051147 1787.326782,1164.477051   C1766.318115,1074.587891 1712.559814,1012.406250 1627.186890,977.559021   C1605.221680,968.593323 1582.101074,964.253235 1558.578613,962.005920   C1551.553589,961.334778 1544.469238,961.285461 1537.473755,960.954163   C1536.954346,954.871826 1536.418945,949.298462 1536.012817,943.715637   C1534.982910,929.553528 1534.695435,915.297363 1532.850952,901.244202   C1530.270508,881.583984 1527.917847,861.728943 1523.096191,842.553650   C1482.247681,680.104065 1384.350586,565.071228 1232.450073,495.618378   C1223.939087,491.726929 1213.927612,489.481567 1204.576538,489.359100   C1171.853149,488.930450 1153.820801,516.682800 1153.493164,541.593079   C1152.305420,631.897400 1152.995483,722.226685 1153.034912,812.546509   C1153.037231,818.021606 1153.543579,823.496399 1153.476318,829.727905   C1153.318970,831.043884 1153.026855,832.359619 1153.024658,833.675903   C1152.995972,851.168823 1152.993286,868.661926 1153.033813,886.154785   C1153.037720,887.806091 1153.245239,889.483948 1153.580688,891.103333   C1158.181885,913.309937 1177.171753,928.901306 1200.010986,928.971069   C1233.663818,929.073853 1267.317383,928.986328 1300.970581,929.026855   C1303.788330,929.030273 1306.703735,928.991638 1309.404419,929.658386   C1317.277954,931.602112 1325.065552,933.893982 1332.725708,936.694580   C1330.523315,939.621216 1328.372925,942.588745 1326.110962,945.468628   C1263.049438,1025.757324 1199.977783,1106.038452 1136.904663,1186.317993   C1119.104126,1208.974487 1101.360229,1231.675781 1083.464722,1254.256958   C1070.659424,1270.415283 1054.182495,1281.358887 1033.661987,1283.731934   C1007.985779,1286.701416 987.177734,1276.489136 971.269165,1256.246948   C900.568970,1166.287598 829.868103,1076.328857 759.197571,986.346313   C746.348816,969.986267 733.640076,953.516296 721.515686,936.780823   C731.497986,931.202637 742.244385,928.941650 753.631775,928.970642   C786.761047,929.055115 819.891235,929.117615 853.019958,928.958740   C878.416321,928.836975 901.403381,908.135925 900.143433,881.772888   C899.421021,866.657776 900.045654,851.479736 899.976074,836.330383   C899.966309,834.208130 899.453613,832.088257 899.137817,829.131226   C899.458008,826.159607 900.056213,823.188110 900.057983,820.216309   C900.112915,729.581055 900.196106,638.945496 899.925781,548.311035   C899.907104,542.043396 898.260254,535.268250 895.543213,529.606079   C880.694641,498.662598 837.745850,483.554077 807.477783,498.569183   C666.451477,568.527954 573.944458,678.548401 533.470947,831.329346   C532.494751,835.014465 531.344299,837.076721 527.025757,837.208679   C522.966736,837.332642 518.937500,838.675537 514.910034,839.550659   C459.817505,851.520508 410.479279,875.389160 368.042542,912.520142   C298.279480,973.560791 260.837097,1050.508667 257.249847,1143.367554   C256.676575,1158.206909 258.230957,1173.128418 258.480286,1188.753174   C255.253799,1216.424561 256.960602,1243.947876 261.655945,1271.274414   C267.803223,1307.051147 279.931641,1340.731445 297.630554,1372.504761   C317.093964,1407.445557 342.504120,1437.417480 372.952393,1463.022949   C396.254272,1482.619019 422.077423,1498.470093 450.124756,1510.593872   C489.152435,1527.463989 529.894287,1536.871094 572.378479,1536.895996   C895.197144,1537.085571 1218.015991,1537.016846 1540.834717,1536.957886   C1560.557739,1536.954224 1580.034180,1534.221924 1599.126343,1529.342773   C1639.383789,1519.054688 1675.000732,1500.050049 1706.228638,1472.510010   C1729.380249,1452.092285 1748.162231,1428.337769 1762.758789,1401.293823   C1784.958496,1360.163574 1794.461548,1316.000000 1792.872925,1269.408325   C1792.696777,1264.240601 1791.251343,1259.116089 1790.345093,1253.155640  z"/>




<path fill="#FFFFFF" opacity="1.000000" stroke="none" d=" M1153.815430,828.971375   C1153.543579,823.496399 1153.037231,818.021606 1153.034912,812.546509   C1152.995483,722.226685 1152.305420,631.897400 1153.493164,541.593079   C1153.820801,516.682800 1171.853149,488.930450 1204.576538,489.359100   C1213.927612,489.481567 1223.939087,491.726929 1232.450073,495.618378   C1384.350586,565.071228 1482.247681,680.104065 1523.096191,842.553650   C1527.917847,861.728943 1530.270508,881.583984 1532.850952,901.244202   C1534.695435,915.297363 1534.982910,929.553528 1536.012817,943.715637   C1536.418945,949.298462 1536.954346,954.871826 1537.473755,960.954163   C1544.469238,961.285461 1551.553589,961.334778 1558.578613,962.005920   C1582.101074,964.253235 1605.221680,968.593323 1627.186890,977.559021   C1712.559814,1012.406250 1766.318115,1074.587891 1787.326782,1164.477051   C1790.265503,1177.051147 1791.005371,1190.222778 1791.851196,1203.177246   C1792.592773,1214.536255 1792.233643,1225.982788 1791.999756,1237.383301   C1791.891724,1242.649902 1790.923340,1247.898682 1790.246460,1253.971558   C1789.339355,1259.477661 1788.680786,1264.199585 1787.698242,1268.853027   C1780.666138,1302.160889 1768.031616,1333.241577 1748.224365,1360.912354   C1695.670288,1434.329712 1624.301880,1472.830933 1533.622681,1472.902710   C1215.965332,1473.153809 898.307556,1473.009033 580.649902,1472.957397   C570.875732,1472.955811 561.017151,1473.013062 551.346558,1471.829224   C535.349487,1469.870728 519.205872,1468.019165 503.591187,1464.208374   C420.382843,1443.901245 355.324615,1397.390381 308.274109,1326.007935   C280.668060,1284.125488 264.537048,1237.866943 258.801727,1188.011963   C258.230957,1173.128418 256.676575,1158.206909 257.249847,1143.367554   C260.837097,1050.508667 298.279480,973.560791 368.042542,912.520142   C410.479279,875.389160 459.817505,851.520508 514.910034,839.550659   C518.937500,838.675537 522.966736,837.332642 527.025757,837.208679   C531.344299,837.076721 532.494751,835.014465 533.470947,831.329346   C573.944458,678.548401 666.451477,568.527954 807.477783,498.569183   C837.745850,483.554077 880.694641,498.662598 895.543213,529.606079   C898.260254,535.268250 899.907104,542.043396 899.925781,548.311035   C900.196106,638.945496 900.112915,729.581055 900.057983,820.216309   C900.056213,823.188110 899.458008,826.159607 899.026978,829.905884   C893.726807,850.592163 874.455566,864.962952 852.244019,864.986328   C819.132324,865.021118 786.020081,864.900879 752.909180,865.062927   C743.098572,865.110962 733.446167,866.453430 724.525879,871.153809   C710.558716,878.513428 705.283752,892.080505 706.238525,903.003296   C707.347595,915.692627 712.608276,927.180664 720.866699,937.097046   C733.640076,953.516296 746.348816,969.986267 759.197571,986.346313   C829.868103,1076.328857 900.568970,1166.287598 971.269165,1256.246948   C987.177734,1276.489136 1007.985779,1286.701416 1033.661987,1283.731934   C1054.182495,1281.358887 1070.659424,1270.415283 1083.464722,1254.256958   C1101.360229,1231.675781 1119.104126,1208.974487 1136.904663,1186.317993   C1199.977783,1106.038452 1263.049438,1025.757324 1326.110962,945.468628   C1328.372925,942.588745 1330.523315,939.621216 1333.059326,936.129883   C1337.394531,926.851746 1343.120361,918.499817 1345.039795,909.349487   C1349.063843,890.166199 1344.357300,875.572083 1321.950195,868.260620   C1314.818481,865.933472 1306.907837,865.215332 1299.339844,865.139160   C1266.848633,864.812378 1234.352295,865.065735 1201.858154,864.976379   C1177.989502,864.910706 1160.694092,851.849854 1153.815430,828.971375  z"/>
<path fill="#335e69" opacity="1.000000" stroke="none" d=" M258.640991,1188.382568   C264.537048,1237.866943 280.668060,1284.125488 308.274109,1326.007935   C355.324615,1397.390381 420.382843,1443.901245 503.591187,1464.208374   C519.205872,1468.019165 535.349487,1469.870728 551.346558,1471.829224   C561.017151,1473.013062 570.875732,1472.955811 580.649902,1472.957397   C898.307556,1473.009033 1215.965332,1473.153809 1533.622681,1472.902710   C1624.301880,1472.830933 1695.670288,1434.329712 1748.224365,1360.912354   C1768.031616,1333.241577 1780.666138,1302.160889 1787.698242,1268.853027   C1788.680786,1264.199585 1789.339355,1259.477661 1790.271240,1254.379517   C1791.251343,1259.116089 1792.696777,1264.240601 1792.872925,1269.408325   C1794.461548,1316.000000 1784.958496,1360.163574 1762.758789,1401.293823   C1748.162231,1428.337769 1729.380249,1452.092285 1706.228638,1472.510010   C1675.000732,1500.050049 1639.383789,1519.054688 1599.126343,1529.342773   C1580.034180,1534.221924 1560.557739,1536.954224 1540.834717,1536.957886   C1218.015991,1537.016846 895.197144,1537.085571 572.378479,1536.895996   C529.894287,1536.871094 489.152435,1527.463989 450.124756,1510.593872   C422.077423,1498.470093 396.254272,1482.619019 372.952393,1463.022949   C342.504120,1437.417480 317.093964,1407.445557 297.630554,1372.504761   C279.931641,1340.731445 267.803223,1307.051147 261.655945,1271.274414   C256.960602,1243.947876 255.253799,1216.424561 258.640991,1188.382568  z"/>
<path fill="#335e69" opacity="1.000000" stroke="none" d=" M1153.645996,829.349609   C1160.694092,851.849854 1177.989502,864.910706 1201.858154,864.976379   C1234.352295,865.065735 1266.848633,864.812378 1299.339844,865.139160   C1306.907837,865.215332 1314.818481,865.933472 1321.950195,868.260620   C1344.357300,875.572083 1349.063843,890.166199 1345.039795,909.349487   C1343.120361,918.499817 1337.394531,926.851746 1333.139893,935.807251   C1325.065552,933.893982 1317.277954,931.602112 1309.404419,929.658386   C1306.703735,928.991638 1303.788330,929.030273 1300.970581,929.026855   C1267.317383,928.986328 1233.663818,929.073853 1200.010986,928.971069   C1177.171753,928.901306 1158.181885,913.309937 1153.580688,891.103333   C1153.245239,889.483948 1153.037720,887.806091 1153.033813,886.154785   C1152.993286,868.661926 1152.995972,851.168823 1153.024658,833.675903   C1153.026855,832.359619 1153.318970,831.043884 1153.645996,829.349609  z"/>
<path fill="#335e69" opacity="1.000000" stroke="none" d=" M721.191162,936.938965   C712.608276,927.180664 707.347595,915.692627 706.238525,903.003296   C705.283752,892.080505 710.558716,878.513428 724.525879,871.153809   C733.446167,866.453430 743.098572,865.110962 752.909180,865.062927   C786.020081,864.900879 819.132324,865.021118 852.244019,864.986328   C874.455566,864.962952 893.726807,850.592163 899.044922,830.323914   C899.453613,832.088257 899.966309,834.208130 899.976074,836.330383   C900.045654,851.479736 899.421021,866.657776 900.143433,881.772888   C901.403381,908.135925 878.416321,928.836975 853.019958,928.958740   C819.891235,929.117615 786.761047,929.055115 753.631775,928.970642   C742.244385,928.941650 731.497986,931.202637 721.191162,936.938965  z"/>
</svg>
