<svg version="1.1" id="Layer_1" xmlns="http://www.w3.org/2000/svg" xmlns:xlink="http://www.w3.org/1999/xlink" x="0px" y="0px"
	 width="100%" viewBox="0 0 672 672" enable-background="new 0 0 672 672" xml:space="preserve">
<path fill="rgb(170, 0, 170)" opacity="1.000000" stroke="none" 
	d="
M673.000000,493.571533 
	C671.177673,495.050079 669.170959,495.003693 667.165039,495.000580 
	C650.666260,494.974915 634.167358,494.970551 617.668640,494.928497 
	C611.446655,494.912628 611.008301,494.497070 611.010315,488.524658 
	C611.030701,427.029144 611.060608,365.533630 611.116882,304.038147 
	C611.119812,300.878387 611.638794,297.704712 611.462830,294.562988 
	C611.261414,290.968140 609.457581,289.274323 605.799438,291.285126 
	C589.011719,300.513123 572.255554,309.798981 555.425415,318.949036 
	C552.287292,320.655151 552.315918,323.286926 552.317383,326.184540 
	C552.338257,368.181549 552.330811,410.178589 552.330139,452.175598 
	C552.329895,466.674561 552.196350,481.175598 552.417419,495.671173 
	C552.476990,499.575806 551.081787,501.590332 547.698486,503.416382 
	C489.206390,534.985657 430.784241,566.684631 372.348724,598.358704 
	C363.561462,603.121765 354.731567,607.809998 346.030884,612.726624 
	C343.082062,614.393005 340.662659,614.357727 337.674957,612.730591 
	C291.734436,587.710754 245.735260,562.798645 199.760651,537.841370 
	C178.530212,526.316406 157.364563,514.670959 136.063553,503.278320 
	C132.703369,501.481140 131.208374,499.494171 131.272888,495.602753 
	C131.463226,484.120178 131.319534,472.632080 131.223389,461.145111 
	C130.923508,425.316681 131.049469,389.484406 131.091583,353.653687 
	C131.102158,344.659790 131.238342,335.657593 131.670776,326.676270 
	C131.874908,322.436462 130.335968,319.988220 126.643860,317.977478 
	C98.406471,302.599304 70.259567,287.055023 42.078350,271.573639 
	C33.901310,267.081573 25.682150,262.665588 17.533024,258.123718 
	C15.679673,257.090790 13.539823,256.366669 12.264230,254.367081 
	C12.758512,252.010651 14.979272,251.602188 16.626352,250.702896 
	C113.718277,197.691879 210.829391,144.716019 307.942657,91.744049 
	C317.741211,86.399284 327.612976,81.186394 337.347443,75.727943 
	C340.400177,74.016144 342.842438,73.823502 346.093262,75.603775 
	C408.486176,109.772476 470.953888,143.804672 533.402405,177.871918 
	C578.008423,202.205658 622.576782,226.608887 667.266907,250.787231 
	C671.277161,252.956863 672.410400,255.421722 672.402344,259.787323 
	C672.267761,333.115204 672.300171,406.443390 672.323975,479.771515 
	C672.324768,482.252411 672.622925,484.733276 672.891235,487.607056 
	C673.000000,489.714355 673.000000,491.428711 673.000000,493.571533 
M534.523499,247.999588 
	C527.041870,243.971375 519.554993,239.952972 512.079529,235.913345 
	C456.968933,206.132507 401.845215,176.375824 346.787903,146.496811 
	C343.285278,144.595978 340.458801,144.674362 337.073914,146.543121 
	C322.199524,154.755035 307.248657,162.829086 292.295868,170.898193 
	C244.942245,196.451965 197.555405,221.944412 150.253830,247.594101 
	C146.718781,249.511017 142.593262,250.721283 139.855972,253.944672 
	C140.851822,255.828415 142.433685,256.486572 143.870300,257.266266 
	C159.097580,265.530670 174.337280,273.772156 189.580933,282.006317 
	C238.244598,308.292877 286.943207,334.515198 335.523621,360.954712 
	C339.960388,363.369385 343.313110,363.606262 347.869110,361.131439 
	C410.088013,327.334717 472.425110,293.755615 534.699280,260.060425 
	C537.530029,258.528748 542.100952,257.931702 542.336853,254.413940 
	C542.593201,250.591812 537.647583,250.379776 534.523499,247.999588 
M465.457703,366.989716 
	C425.330566,389.055908 385.195160,411.107086 345.097748,433.227142 
	C342.786377,434.502228 340.896576,434.605957 338.610443,433.233978 
	C334.472412,430.750610 330.190674,428.505707 325.958282,426.180634 
	C283.918976,403.086304 241.872131,380.005676 199.842545,356.893677 
	C193.859467,353.603607 192.348923,354.409363 192.341568,361.424805 
	C192.307159,394.244263 192.363434,427.063873 192.277069,459.883148 
	C192.269119,462.894531 193.102829,464.756409 195.861115,466.239380 
	C243.238815,491.712372 290.584473,517.245239 337.875244,542.879089 
	C341.135223,544.646118 343.587219,544.139465 346.626312,542.492249 
	C393.186920,517.255493 439.780212,492.078583 486.449707,467.043945 
	C490.190338,465.037415 491.738373,462.687836 491.639648,458.487335 
	C491.307007,444.335785 491.106934,430.177673 491.120605,416.022278 
	C491.138092,397.880920 491.412872,379.739807 491.573883,361.598572 
	C491.593201,359.422272 491.779724,357.073914 489.608124,355.759979 
	C487.343964,354.390045 485.521057,356.032288 483.641205,357.064545 
	C477.803253,360.270294 471.946381,363.441650 465.457703,366.989716 
z"/>
</svg>
