<svg xmlns="http://www.w3.org/2000/svg" xmlns:xlink="http://www.w3.org/1999/xlink" version="1.1" id="Layer_1" x="0px" y="0px" width="100%" viewBox="0 0 360 360" enable-background="new 0 0 360 360" xml:space="preserve">

<path fill="#FED939" opacity="1.000000" stroke="none" d=" M242.378113,328.388062   C188.170181,349.110107 136.751633,344.137024 89.553703,311.042053   C51.266266,284.195068 28.963501,246.507401 23.913288,199.681335   C18.260050,147.263962 34.902882,102.376854 72.880730,66.005028   C98.683823,41.293106 129.913803,27.303467 165.664978,23.844744   C208.300262,19.720022 246.709900,30.937754 280.112701,57.353271   C310.545715,81.420235 330.322601,112.820969 337.061646,151.330673   C347.879120,213.146255 328.820190,264.539764 281.140106,305.240967   C269.675140,315.027863 256.673462,322.473236 242.378113,328.388062  z"/>
<path fill="#0D0A06" opacity="1.000000" stroke="none" d=" M264.801117,228.200500   C273.369568,217.744141 278.227142,205.809860 281.746277,193.238251   C281.970123,192.438538 282.043213,191.595764 282.278503,190.800262   C282.944794,188.547653 284.088013,186.615967 286.817810,187.346954   C289.329071,188.019455 289.932251,189.912491 289.376831,192.442215   C287.620148,200.443771 284.920593,208.109207 281.359589,215.467499   C260.788910,257.973480 217.128281,282.392761 169.800018,277.894623   C125.220642,273.657715 86.557816,240.635422 74.539597,196.369232   C73.717911,193.342743 70.939827,188.890793 76.052605,187.492996   C80.966164,186.149673 80.565865,191.161163 81.381485,194.100662   C85.768723,209.912308 93.269737,224.014709 104.498932,236.470032   C106.141983,236.069351 106.442001,237.366684 107.326599,238.184616   C107.654709,238.561707 107.788467,238.711182 108.344315,239.299103   C108.913971,239.882065 109.061539,240.026596 109.667786,240.605743   C111.047188,241.970490 112.109291,242.724457 113.432495,243.694000   C120.541031,249.308838 127.449425,254.617233 135.600159,258.697754   C136.262039,259.135956 136.637970,259.386841 137.312439,259.797485   C137.810043,260.065796 138.011185,260.171143 138.517151,260.432739   C140.867264,261.715515 142.985916,262.660706 145.630859,263.298187   C174.031723,273.257050 201.368515,271.688568 228.056244,258.506714   C231.808868,256.653168 234.647308,253.438049 238.905029,251.773483   C240.895065,250.911591 242.347748,249.897629 243.855011,248.406921   C244.228699,248.030502 244.381058,247.884567 244.777542,247.541809   C245.522888,246.987198 246.050446,246.668518 246.797699,246.132843   C247.208618,245.836227 247.375427,245.720398 247.798370,245.440063   C248.574799,244.947311 249.081131,244.600891 249.725098,243.912109   C255.717255,239.443375 258.692810,232.555588 264.801117,228.200500  z"/>
<path fill="#050403" opacity="1.000000" stroke="none" d=" M139.593521,167.973740   C134.116165,170.325867 129.827423,168.846893 126.153442,165.057571   C116.890472,155.503784 116.697174,134.281906 125.741158,124.473427   C131.183487,118.571045 137.975891,118.435669 143.552155,124.149429   C153.975616,134.829895 152.696075,160.673630 139.593521,167.973740  z"/>
<path fill="#050403" opacity="1.000000" stroke="none" d=" M214.316162,156.487686   C211.395706,147.038986 211.527130,138.080750 215.741455,129.456696   C218.241180,124.341400 221.760284,120.060043 228.079773,120.040222   C234.422821,120.020325 238.028091,124.335541 240.437607,129.442581   C245.164001,139.460190 245.194031,149.710907 240.394226,159.730530   C237.942276,164.848984 234.358276,169.085205 227.997192,169.056015   C221.867310,169.027878 218.590790,164.814713 215.892334,160.023773   C215.325684,159.017731 214.935623,157.912216 214.316162,156.487686  z"/>
<path fill="#F8D23E" opacity="1.000000" stroke="none" d=" M264.898529,227.878510   C261.092560,234.336517 255.876694,239.572891 250.212189,244.833038   C249.515732,245.480270 248.854538,245.457520 248.314453,246.063232   C248.251328,246.348404 248.106400,246.147156 248.201599,246.226593   C247.103790,246.395432 246.179413,246.961960 245.597183,248.210617   C245.729797,248.520599 245.580414,248.614304 245.510559,248.668106   C243.432037,248.665680 242.383881,250.026093 241.192780,251.728348   C229.498199,260.388794 216.781616,266.063171 202.843231,268.952911   C183.314285,273.001709 164.182724,271.454498 145.179413,264.476440   C143.021271,262.606781 140.653046,262.069458 138.010651,261.250214   C137.662903,261.137238 137.283951,261.128387 137.141968,261.002838   C136.724030,260.657928 136.439972,260.449615 135.888107,260.203918   C127.510437,256.111603 120.224197,250.815811 112.973816,244.946991   C112.732094,243.755356 111.978310,243.128540 111.877228,241.635071   C113.863075,240.906570 115.706978,240.948029 117.079597,242.472397   C122.000435,247.937225 129.029343,249.958282 135.069397,253.600677   C144.527298,259.304138 155.208160,260.592773 165.567612,263.437317   C176.822250,266.527649 187.724213,265.503967 198.267776,263.561066   C208.249741,261.721619 218.642090,259.423462 227.688049,253.889893   C230.075302,252.429581 232.542786,250.996490 235.150513,250.027390   C238.260269,248.871719 240.762436,247.358932 242.096176,244.143219   C242.418365,243.366409 243.517776,242.626877 244.393356,242.410370   C250.684952,240.854584 253.567810,235.770157 257.220551,231.141449   C258.789612,229.153168 261.135376,227.080704 263.403015,225.610306   C265.282104,224.391876 264.114441,227.018936 264.898529,227.878510  z"/>









</svg>