<svg xmlns="http://www.w3.org/2000/svg" xmlns:xlink="http://www.w3.org/1999/xlink" version="1.1" x="0px" y="0px" width="100%" viewBox="0 0 485 485" enable-background="new 0 0 485 485" xml:space="preserve">
    <path fill="rgba(0, 0, 0, 0)" opacity="1.000000" stroke="none" d=" M322.000000,486.000000   C214.666687,486.000000 107.833382,486.000000 1.000057,486.000000   C1.000038,324.333405 1.000038,162.666794 1.000019,1.000144   C162.666565,1.000096 324.333130,1.000096 485.999756,1.000048   C485.999847,162.666519 485.999847,324.333038 485.999939,485.999786   C431.500000,486.000000 377.000000,486.000000 322.000000,486.000000  M95.945183,221.436127   C81.252403,226.190308 66.539635,230.883881 51.873966,235.720291   C42.329674,238.867752 40.278519,248.283569 47.616798,255.143646   C54.536247,261.612152 61.663303,267.859497 68.551720,274.360229   C105.407341,309.141724 136.585922,348.139801 158.009033,394.451630   C162.943375,405.118561 174.245758,409.089966 185.479675,404.621857   C196.280319,400.326080 206.986893,395.794220 217.747314,391.396729   C231.462341,385.791809 240.598083,375.944824 245.933609,362.129852   C261.598907,321.568573 280.068604,282.364471 302.893616,245.272308   C332.278625,197.519760 368.051117,155.379913 412.188751,120.601639   C421.592957,113.191551 431.492065,106.411217 441.122345,99.285599   C445.900085,95.750450 446.072113,89.982552 441.241333,87.435913   C429.169312,81.071861 417.009583,79.324211 404.089020,85.881401   C377.042603,99.607414 351.193512,115.206116 326.722809,133.124619   C280.745331,166.791336 241.911728,207.319183 210.130966,254.580948   C202.945587,265.266479 196.375443,276.365692 189.487885,287.328949   C183.492004,276.937561 178.128113,266.378754 171.584320,256.610321   C162.801041,243.498840 153.290695,230.857452 143.724808,218.294220   C138.871735,211.920502 132.318100,209.632675 124.252151,212.409256   C115.142807,215.544983 105.889236,218.261734 95.945183,221.436127  z"/>
    <path fill="#02BD03" opacity="1.000000" stroke="none" d=" M96.321785,221.298401   C105.889236,218.261734 115.142807,215.544983 124.252151,212.409256   C132.318100,209.632675 138.871735,211.920502 143.724808,218.294220   C153.290695,230.857452 162.801041,243.498840 171.584320,256.610321   C178.128113,266.378754 183.492004,276.937561 189.487885,287.328949   C196.375443,276.365692 202.945587,265.266479 210.130966,254.580948   C241.911728,207.319183 280.745331,166.791336 326.722809,133.124619   C351.193512,115.206116 377.042603,99.607414 404.089020,85.881401   C417.009583,79.324211 429.169312,81.071861 441.241333,87.435913   C446.072113,89.982552 445.900085,95.750450 441.122345,99.285599   C431.492065,106.411217 421.592957,113.191551 412.188751,120.601639   C368.051117,155.379913 332.278625,197.519760 302.893616,245.272308   C280.068604,282.364471 261.598907,321.568573 245.933609,362.129852   C240.598083,375.944824 231.462341,385.791809 217.747314,391.396729   C206.986893,395.794220 196.280319,400.326080 185.479675,404.621857   C174.245758,409.089966 162.943375,405.118561 158.009033,394.451630   C136.585922,348.139801 105.407341,309.141724 68.551720,274.360229   C61.663303,267.859497 54.536247,261.612152 47.616798,255.143646   C40.278519,248.283569 42.329674,238.867752 51.873966,235.720291   C66.539635,230.883881 81.252403,226.190308 96.321785,221.298401  z"/>
    </svg>
