<svg xmlns="http://www.w3.org/2000/svg" xmlns:xlink="http://www.w3.org/1999/xlink" version="1.1" id="Layer_1" x="0px" y="0px" width="100%" viewBox="0 0 446 446" enable-background="new 0 0 446 446" xml:space="preserve">



<path fill="#1A77D2" opacity="1.000000" stroke="none" d=" M1.000000,223.250000   C10.404896,220.350861 19.854931,217.851135 29.206656,215.026001   C64.340118,204.412262 99.441505,193.692383 135.266663,182.851761   C147.781357,179.049332 159.584290,175.407425 171.431549,171.755676   C171.475876,171.745834 171.637970,171.765259 171.960785,172.005478   C188.155197,188.053925 204.018311,203.870667 219.914627,219.653992   C221.166611,220.897095 222.649445,221.907684 224.013031,223.013367   C224.001053,223.000381 223.974167,222.977554 223.596329,223.189545   C222.997543,223.587555 222.776611,223.773590 222.536530,223.956207   C222.517365,223.952789 222.399094,223.937637 221.892120,223.960632   C150.701813,223.989914 80.018486,223.993698 9.335167,224.014389   C7.181420,224.015015 5.027724,224.191727 2.874004,224.286346   C2.459450,224.209808 2.044896,224.133255 1.315171,224.028351   C1.000000,224.000000 1.000000,223.500000 1.000000,223.250000  z"/>
<path fill="#90CAF9" opacity="1.000000" stroke="none" d=" M222.555695,223.959610   C222.776611,223.773590 222.997543,223.587555 223.937744,223.154327   C226.047546,221.744537 227.534927,220.679077 228.813904,219.404495   C243.328445,204.939667 257.791931,190.423553 272.331024,175.983521   C273.830139,174.494598 275.729034,173.408218 277.838318,172.268387   C279.212677,172.744003 280.191162,173.086273 281.144836,173.829361   C281.903198,175.103226 282.686310,175.976273 283.469452,176.849319   C284.002991,176.145218 284.536530,175.441132 285.427246,174.772186   C287.575989,175.357330 289.367615,175.907318 291.141846,176.876373   C292.755707,181.315292 295.324707,180.629898 298.496155,178.728943   C300.622833,179.318604 302.396210,179.873566 304.144867,180.829773   C304.907349,182.102966 305.694611,182.974930 306.481842,183.846863   C307.012970,183.136429 307.544098,182.425995 308.461121,181.756042   C310.110565,181.874954 311.374146,181.953339 312.637726,182.031723   C312.690735,182.202225 312.743713,182.372726 312.931396,183.086166   C313.725372,183.722595 314.384705,183.816086 315.044006,183.909592   C321.785828,185.903320 328.527649,187.897064 335.672791,190.282410   C336.732056,190.752533 337.388000,190.831039 338.043915,190.909546   C360.121277,197.566223 382.198669,204.222885 404.676147,211.274750   C405.735596,211.743027 406.394897,211.816086 407.054230,211.889160   C413.796814,213.886673 420.539368,215.884171 427.679108,218.275818   C428.735596,218.743027 429.394897,218.816101 430.054230,218.889160   C435.433075,220.284042 440.811920,221.678925 446.595398,223.036896   C447.000000,223.444443 447.000000,223.888901 447.000000,224.666672   C446.809082,225.006165 446.618195,225.012314 445.865356,224.658112   C444.318054,224.198273 443.332703,224.011841 442.347321,224.011642   C370.999573,223.997513 299.651794,223.994370 228.304062,224.024506   C226.851303,224.025116 225.398712,224.426819 223.586884,224.494553   C223.003708,224.218338 222.779709,224.088974 222.555695,223.959610  z"/>
<path fill="#1A77D2" opacity="1.000000" stroke="none" d=" M222.399078,223.937637   C222.399094,223.937637 222.517365,223.952789 222.536530,223.956207   C222.779709,224.088974 223.003708,224.218338 223.599945,224.475311   C223.972168,224.602921 223.948135,224.564499 223.967529,225.060120   C223.991409,297.485626 223.996964,369.415527 223.992813,441.345398   C223.992722,442.841461 223.880142,444.337494 223.820023,445.833557   C220.232254,434.693329 216.508591,423.594757 213.082321,412.405060   C202.989777,379.444122 193.015060,346.447083 182.815826,312.753784   C179.010971,300.043793 175.384537,288.044159 171.999481,275.799683   C187.856705,259.932373 203.490173,244.327393 219.057083,228.656296   C220.396790,227.307617 221.295517,225.520874 222.399078,223.937637  z"/>
<path fill="#90CAF9" opacity="1.000000" stroke="none" d=" M224.156494,445.703705   C223.880142,444.337494 223.992722,442.841461 223.992813,441.345398   C223.996964,369.415527 223.991409,297.485626 224.273224,225.251465   C229.463730,229.641449 234.463593,234.240463 239.253510,239.048599   C251.546417,251.388306 263.746124,263.820831 276.003479,276.388245   C276.023865,276.560181 276.113647,276.895935 275.990906,277.258423   C273.972565,283.745422 271.966736,289.838562 270.214325,296.003754   C268.650513,301.505402 267.366699,307.086639 265.959351,312.632721   C261.983612,324.914307 257.878845,337.155884 254.057312,349.485260   C244.136047,381.494202 234.339371,413.541718 224.156494,445.703705  z"/>
<path fill="#1A77D2" opacity="1.000000" stroke="none" d=" M275.983093,276.216309   C263.746124,263.820831 251.546417,251.388306 239.253510,239.048599   C234.463593,234.240463 229.463730,229.641449 224.253815,224.755844   C223.948135,224.564499 223.972168,224.602921 223.959106,224.622162   C225.398712,224.426819 226.851303,224.025116 228.304062,224.024506   C299.651794,223.994370 370.999573,223.997513 442.347321,224.011642   C443.332703,224.011841 444.318054,224.198273 445.586731,224.591385   C401.743195,238.258408 357.616302,251.631821 312.777100,265.183502   C300.037567,268.979919 288.010315,272.598114 275.983093,276.216309  z"/>
<path fill="#90CAF9" opacity="1.000000" stroke="none" d=" M221.892105,223.960632   C221.295517,225.520874 220.396790,227.307617 219.057083,228.656296   C203.490173,244.327393 187.856705,259.932373 171.838623,275.810577   C171.436371,276.066284 171.116333,276.120758 170.758270,275.974854   C163.638550,273.761475 156.904068,271.598846 150.106125,269.658569   C145.241211,268.270020 140.291275,267.179352 135.379257,265.955811   C127.885559,263.365234 120.462692,260.543243 112.885880,258.224274   C80.355339,248.267929 47.777287,238.466858 15.223093,228.587646   C11.257185,227.384125 7.330888,226.050064 3.130121,224.531433   C5.027724,224.191727 7.181420,224.015015 9.335167,224.014389   C80.018486,223.993698 150.701813,223.989914 221.892105,223.960632  z"/>
<path fill="#7B584B" opacity="1.000000" stroke="none" d=" M266.306671,312.775696   C267.366699,307.086639 268.650513,301.505402 270.214325,296.003754   C271.966736,289.838562 273.972565,283.745422 276.320068,277.325104   C278.262543,278.339996 279.830505,279.573120 281.232117,280.972870   C306.803436,306.510254 332.347961,332.074463 357.931122,357.599976   C359.178894,358.844940 360.728119,359.787720 362.136963,360.871185   C362.136963,361.794159 362.136963,362.717133 362.136963,363.777344   C330.097382,346.711548 298.375702,329.815094 266.306671,312.775696  z"/>
<path fill="#BBA9A3" opacity="1.000000" stroke="none" d=" M171.116333,276.120758   C171.116333,276.120758 171.436371,276.066284 171.597229,276.055420   C175.384537,288.044159 179.010971,300.043793 182.693634,312.364136   C175.503143,316.320984 168.178467,319.810608 161.023804,323.619568   C135.688034,337.107880 110.411255,350.706940 85.104599,364.249969   C84.570366,364.535858 83.945236,364.651855 82.653267,365.084808   C83.282326,363.765442 83.607933,363.082550 84.549652,362.164978   C86.431374,360.884216 87.787567,359.929535 88.949219,358.778473   C111.029968,336.899261 133.124634,315.033813 155.124390,293.073364   C160.619919,287.587646 165.794342,281.780273 171.116333,276.120758  z"/>
<path fill="#7A574A" opacity="1.000000" stroke="none" d=" M170.758270,275.974854   C165.794342,281.780273 160.619919,287.587646 155.124390,293.073364   C133.124634,315.033813 111.029968,336.899261 88.949219,358.778473   C87.787567,359.929535 86.431374,360.884216 84.791222,361.964417   C101.305931,330.218842 118.195183,298.439209 135.231842,266.307678   C140.291275,267.179352 145.241211,268.270020 150.106125,269.658569   C156.904068,271.598846 163.638550,273.761475 170.758270,275.974854  z"/>
<path fill="#BCAAA5" opacity="1.000000" stroke="none" d=" M362.166656,360.500793   C360.728119,359.787720 359.178894,358.844940 357.931122,357.599976   C332.347961,332.074463 306.803436,306.510254 281.232117,280.972870   C279.830505,279.573120 278.262543,278.339996 276.442841,276.962616   C276.113647,276.895935 276.023865,276.560181 276.003479,276.388245   C288.010315,272.598114 300.037567,268.979919 312.389038,265.307190   C316.830261,273.379395 320.826813,281.569916 325.087158,289.620819   C337.050476,312.228333 349.126373,334.776215 361.137421,357.358490   C361.598358,358.225037 361.848175,359.203888 362.166656,360.500793  z"/>
<path fill="#1A77D2" opacity="1.000000" stroke="none" d=" M277.442413,172.135040   C275.729034,173.408218 273.830139,174.494598 272.331024,175.983521   C257.791931,190.423553 243.328445,204.939667 228.813904,219.404495   C227.534927,220.679077 226.047546,221.744537 224.315582,222.942352   C223.974167,222.977554 224.001053,223.000381 224.002380,222.543137   C224.001144,160.540405 224.003876,98.994919 223.989197,37.449432   C223.987411,29.966705 223.891922,22.483999 223.898865,14.541914   C223.871582,10.344634 223.785324,6.606722 223.699051,2.868810   C223.938477,2.613851 224.177902,2.358893 224.685837,2.113547   C233.375671,30.075605 241.780273,58.033104 250.224701,85.978561   C255.120010,102.178757 260.079407,118.359589 265.188263,135.258682   C269.150696,147.812988 272.934845,159.657761 276.806885,171.594055   C277.089417,171.822693 277.271973,171.972519 277.442413,172.135040  z"/>
<path fill="#90CAF9" opacity="1.000000" stroke="none" d=" M223.839874,15.001282   C223.891922,22.483999 223.987411,29.966705 223.989197,37.449432   C224.003876,98.994919 224.001144,160.540405 224.014343,222.556122   C222.649445,221.907684 221.166611,220.897095 219.914627,219.653992   C204.018311,203.870667 188.155197,188.053925 172.148529,171.668579   C172.485519,169.671158 172.957581,168.250854 173.830231,166.855255   C175.103928,166.097946 175.977005,165.315933 176.850082,164.533920   C176.147888,163.999969 175.445679,163.466019 174.772797,162.573914   C175.359680,160.424988 175.917252,158.634232 176.877548,156.863815   C181.583618,154.324982 182.001251,152.241425 178.717407,149.557556   C179.314835,147.410904 179.872223,145.620728 180.830368,143.855240   C182.103867,143.096695 182.976624,142.313446 183.849396,141.530182   C183.145294,140.996933 182.441193,140.463669 181.773697,139.541260   C181.891953,137.876633 181.973587,136.601181 182.055206,135.325714   C182.827560,133.698593 183.599899,132.071487 184.998505,130.205032   C186.386932,129.368225 187.149124,128.770752 187.911301,128.173294   C187.272827,127.448517 186.634338,126.723740 185.995850,125.998970   C187.782166,119.829361 189.568497,113.659760 191.989792,107.227936   C193.386948,106.368248 194.149139,105.770775 194.911331,105.173309   C194.272827,104.448540 193.634338,103.723755 192.995850,102.998970   C194.781265,96.829330 196.566696,90.659683 198.986633,84.227623   C200.384476,83.368446 201.147797,82.771690 201.911118,82.174942   C201.272705,81.449608 200.634277,80.724289 199.995850,79.998970   C201.781281,73.829315 203.566711,67.659660 205.986755,61.227585   C207.384613,60.367542 208.147873,59.769920 208.911118,59.172302   C208.270966,58.447430 207.630829,57.722553 206.990692,56.997673   C208.777374,50.828255 210.564072,44.658836 212.977081,38.228775   C214.346375,37.505337 215.089355,37.042549 215.832321,36.579765   C215.149368,36.031956 214.466415,35.484146 213.783478,34.936337   C215.639893,28.451834 217.496307,21.967333 220.000000,15.231556   C221.711472,14.987281 222.775681,14.994282 223.839874,15.001282  z"/>
<path fill="#7A574A" opacity="1.000000" stroke="none" d=" M176.474823,156.843475   C175.917252,158.634232 175.359680,160.424988 174.546753,162.834808   C174.004150,164.579422 173.716888,165.704971 173.429626,166.830536   C172.957581,168.250854 172.485519,169.671158 171.825714,171.428375   C171.637970,171.765259 171.475876,171.745834 171.216125,171.488342   C144.072266,144.340286 117.194862,117.443001 90.280533,90.582718   C89.153236,89.457687 87.681686,88.677589 86.370514,87.736794   C85.902725,87.097557 85.434944,86.458328 84.967155,85.819092   C85.264793,85.328949 85.562431,84.838806 85.860062,84.348663   C117.855652,100.928711 149.460342,118.269897 181.703796,135.188660   C181.973587,136.601181 181.891953,137.876633 181.549179,139.803223   C181.001907,141.579758 180.715759,142.705139 180.429626,143.830536   C179.872223,145.620728 179.314835,147.410904 178.498779,149.835022   C177.651688,152.593781 177.063263,154.718628 176.474823,156.843475  z"/>
<path fill="#BBA9A3" opacity="1.000000" stroke="none" d=" M86.234390,88.100128   C87.681686,88.677589 89.153236,89.457687 90.280533,90.582718   C117.194862,117.443001 144.072266,144.340286 171.171814,171.498169   C159.584290,175.407425 147.781357,179.049332 135.656891,182.744598   C131.783783,175.692657 128.376282,168.510895 124.654221,161.496033   C112.287880,138.189514 99.804131,114.945297 87.386894,91.665718   C86.848503,90.656357 86.522957,89.533470 86.234390,88.100128  z"/>
<path fill="#90CAF9" opacity="1.000000" stroke="none" d=" M223.898865,14.541914   C222.775681,14.994282 221.711472,14.987281 220.244171,14.961006   C220.966705,11.088705 222.092331,7.235679 223.458511,3.125731   C223.785324,6.606722 223.871582,10.344634 223.898865,14.541914  z"/>
<path fill="#90CAF9" opacity="1.000000" stroke="none" d=" M199.745850,80.245316   C200.634277,80.724289 201.272705,81.449608 201.911118,82.174942   C201.147797,82.771690 200.384476,83.368446 199.231781,83.953964   C199.060226,82.792366 199.278030,81.642014 199.745850,80.245316  z"/>
<path fill="#90CAF9" opacity="1.000000" stroke="none" d=" M192.745789,103.245392   C193.634338,103.723755 194.272827,104.448540 194.911331,105.173309   C194.149139,105.770775 193.386948,106.368248 192.235825,106.955063   C192.063171,105.793556 192.279465,104.642685 192.745789,103.245392  z"/>
<path fill="#90CAF9" opacity="1.000000" stroke="none" d=" M185.746063,126.245499   C186.634338,126.723740 187.272827,127.448517 187.911301,128.173294   C187.149124,128.770752 186.386932,129.368225 185.235825,129.955017   C185.063354,128.793564 185.279816,127.642799 185.746063,126.245499  z"/>
<path fill="#90CAF9" opacity="1.000000" stroke="none" d=" M206.740753,57.243965   C207.630829,57.722553 208.270966,58.447430 208.911118,59.172302   C208.147873,59.769920 207.384613,60.367542 206.231903,60.953918   C206.058563,59.791866 206.274689,58.641060 206.740753,57.243965  z"/>
<path fill="#90CAF9" opacity="1.000000" stroke="none" d=" M213.561081,35.170685   C214.466415,35.484146 215.149368,36.031956 215.832321,36.579765   C215.089355,37.042549 214.346375,37.505337 213.222229,37.955063   C213.006927,37.096344 213.172821,36.250687 213.561081,35.170685  z"/>
<path fill="#BBA9A3" opacity="1.000000" stroke="none" d=" M276.718994,171.502518   C272.934845,159.657761 269.150696,147.812988 265.309052,135.649719   C273.090332,131.399506 281.011780,127.623260 288.752686,123.507477   C313.798615,110.190720 338.777649,96.748169 363.792053,83.372047   C364.035645,83.241798 364.409821,83.355850 365.134125,83.355850   C364.716125,84.237724 364.391602,84.922417 363.451721,85.844131   C361.334778,87.366600 359.740387,88.559029 358.345428,89.951286   C331.122711,117.121094 303.923218,144.314194 276.718994,171.502518  z"/>
<path fill="#7A5649" opacity="1.000000" stroke="none" d=" M276.806885,171.594055   C303.923218,144.314194 331.122711,117.121094 358.345428,89.951286   C359.740387,88.559029 361.334778,87.366600 363.209869,86.040634   C346.834930,117.475372 330.086304,148.950562 313.340088,180.426987   C313.184753,180.718979 313.061249,181.027893 312.780304,181.680328   C311.374146,181.953339 310.110565,181.874954 308.197144,181.534546   C306.421417,180.991180 305.295532,180.709854 304.169617,180.428528   C302.396210,179.873566 300.622833,179.318604 298.212646,178.508057   C295.436951,177.654083 293.298096,177.055695 291.159210,176.457306   C289.367615,175.907318 287.575989,175.357330 285.168091,174.543793   C283.424408,173.996338 282.297028,173.712433 281.169647,173.428543   C280.191162,173.086273 279.212677,172.744003 277.838318,172.268402   C277.271973,171.972519 277.089417,171.822693 276.806885,171.594055  z"/>
<path fill="#90CAF9" opacity="1.000000" stroke="none" d=" M429.862762,218.670441   C429.394897,218.816101 428.735596,218.743027 428.039856,218.380157   C428.559418,218.210815 429.115356,218.331268 429.862762,218.670441  z"/>
<path fill="#90CAF9" opacity="1.000000" stroke="none" d=" M406.862762,211.670441   C406.394897,211.816086 405.735596,211.743027 405.039856,211.380157   C405.559418,211.210800 406.115356,211.331253 406.862762,211.670441  z"/>
<path fill="#90CAF9" opacity="1.000000" stroke="none" d=" M337.855042,190.688614   C337.388000,190.831039 336.732056,190.752533 336.039917,190.386047   C336.557831,190.221268 337.112000,190.344467 337.855042,190.688614  z"/>
<path fill="#90CAF9" opacity="1.000000" stroke="none" d=" M314.853699,183.687607   C314.384705,183.816086 313.725372,183.722595 313.029327,183.335449   C313.549530,183.183060 314.106445,183.324341 314.853699,183.687607  z"/>
<path fill="#90CAF9" opacity="1.000000" stroke="none" d=" M291.141846,176.876373   C293.298096,177.055695 295.436951,177.654083 297.859375,178.473358   C295.324707,180.629898 292.755707,181.315292 291.141846,176.876373  z"/>
<path fill="#90CAF9" opacity="1.000000" stroke="none" d=" M304.144867,180.829773   C305.295532,180.709854 306.421417,180.991180 307.811279,181.494034   C307.544098,182.425995 307.012970,183.136429 306.481842,183.846863   C305.694611,182.974930 304.907349,182.102966 304.144867,180.829773  z"/>
<path fill="#90CAF9" opacity="1.000000" stroke="none" d=" M281.144836,173.829361   C282.297028,173.712433 283.424408,173.996338 284.810944,174.508636   C284.536530,175.441132 284.002991,176.145218 283.469452,176.849319   C282.686310,175.976273 281.903198,175.103226 281.144836,173.829361  z"/>
<path fill="#90CAF9" opacity="1.000000" stroke="none" d=" M176.877563,156.863815   C177.063263,154.718628 177.651688,152.593781 178.458740,150.191467   C182.001251,152.241425 181.583618,154.324982 176.877563,156.863815  z"/>
<path fill="#90CAF9" opacity="1.000000" stroke="none" d=" M173.830231,166.855255   C173.716888,165.704971 174.004150,164.579422 174.517441,163.192963   C175.445679,163.466019 176.147888,163.999969 176.850082,164.533920   C175.977005,165.315933 175.103928,166.097946 173.830231,166.855255  z"/>
<path fill="#90CAF9" opacity="1.000000" stroke="none" d=" M180.830368,143.855240   C180.715759,142.705139 181.001907,141.579758 181.512558,140.192383   C182.441193,140.463669 183.145294,140.996933 183.849396,141.530182   C182.976624,142.313446 182.103867,143.096695 180.830368,143.855240  z"/>
</svg>