<svg xmlns="http://www.w3.org/2000/svg" xmlns:xlink="http://www.w3.org/1999/xlink" version="1.1" x="0px" y="0px" width="100%" viewBox="0 0 513 465" enable-background="new 0 0 513 465" xml:space="preserve">
    <path fill="#1A1A1A" opacity="1.000000" stroke="none" d=" M1.241642,406.291565   C1.000000,397.979095 1.000000,389.958191 1.000000,381.468628   C2.626651,379.337738 1.912117,377.197418 2.076329,375.277710   C2.914839,365.475098 6.296447,356.660797 11.252174,348.168213   C34.800465,307.813751 58.069195,267.296387 81.503136,226.875076   C109.275192,178.970917 136.848953,130.952103 164.763901,83.130356   C172.809677,69.346962 180.437805,55.309315 188.724182,41.674023   C198.891800,24.943106 212.635666,11.963506 230.823471,4.042763   C234.567596,2.412208 238.659729,2.736317 242.719604,1.239572   C253.020889,1.000000 263.041779,1.000000 273.531342,1.000000   C278.017975,3.156844 282.707458,2.430180 286.901733,4.297610   C305.751221,12.690011 319.418091,26.544600 329.576782,44.133774   C346.881622,74.096001 364.132477,104.089661 381.385284,134.081680   C397.395935,161.914307 413.407318,189.747406 429.417786,217.580139   C445.011414,244.688248 460.591858,271.804871 476.263397,298.868744   C485.683655,315.137054 495.062225,331.431091 504.414917,347.739288   C509.361725,356.365021 512.577759,365.518890 513.760559,375.720215   C514.000000,387.354218 514.000000,398.708466 514.000000,410.531342   C513.404785,411.626373 513.065125,412.360260 513.029785,413.233398   C512.079041,436.694061 482.807068,463.873047 459.975769,464.862488   C458.845581,464.911438 457.622314,464.844727 456.290283,465.758484   C323.312439,466.000000 190.624878,466.000000 57.468658,466.000000   C56.488663,465.566986 55.957302,465.198334 55.261578,465.090363   C28.685551,460.965332 13.349062,443.850342 3.712149,420.282043   C1.943465,415.956512 2.713393,411.075836 1.241642,406.291565  z"/>
    <path fill="#FEEE11" opacity="1.000000" stroke="none" d=" M303.656067,70.365646   C330.374512,116.783737 356.898132,162.889709 383.436737,208.987091   C413.619659,261.414612 444.028931,313.713684 473.867493,366.336426   C482.060669,380.785858 484.399078,396.641937 476.859924,412.323120   C469.861542,426.879578 456.549988,431.539825 441.556854,432.785400   C439.237732,432.978119 436.895538,432.931213 434.564026,432.931335   C316.092834,432.937531 197.618622,432.467316 79.152313,433.228210   C44.447426,433.451080 27.864651,407.550079 37.606255,375.986908   C39.657917,369.339447 43.535931,363.744202 46.922001,357.876099   C79.987740,300.572845 113.171227,243.337555 146.296280,186.068512   C170.265106,144.629410 194.090668,103.106926 218.207977,61.754524   C225.510376,49.233570 235.219589,38.865047 249.896881,35.210342   C266.735779,31.017393 279.633789,38.445839 290.569153,50.521240   C295.865906,56.370163 299.531860,63.300018 303.656067,70.365646  z"/>
    <path fill="#1B1B1A" opacity="1.000000" stroke="none" d=" M237.961578,279.007935   C234.194275,240.800507 230.057770,203.081604 228.722260,165.135254   C228.675461,163.805618 228.696930,162.469925 228.576248,161.147125   C227.114120,145.121521 236.249771,140.009003 246.888672,137.687683   C258.045624,135.253342 269.090393,135.751068 279.222229,141.820908   C285.513489,145.589905 288.125854,151.226715 287.510864,158.648773   C284.584351,193.969177 281.804596,229.301758 278.969513,264.629730   C277.931244,277.567535 276.998840,290.515259 275.801147,303.438354   C275.005646,312.022095 268.225250,317.718506 259.006592,317.994934   C249.118195,318.291412 242.002274,313.406128 240.719818,304.762329   C239.476028,296.379150 238.874359,287.900726 237.961578,279.007935  z"/>
    <path fill="#1C1C1A" opacity="1.000000" stroke="none" d=" M245.764053,342.591187   C256.913269,336.996185 267.661682,338.554352 275.204102,346.603333   C282.246124,354.118317 283.484985,365.276398 278.203979,374.235443   C273.363861,382.446655 265.970581,386.453003 256.623535,385.744720   C246.493347,384.977112 239.059158,379.654083 235.937897,369.771423   C233.073013,360.700500 234.957565,352.392181 241.984756,345.603699   C243.050217,344.574432 244.295731,343.731567 245.764053,342.591187  z"/>
    </svg>
