<svg version="1.1" id="Layer_1" xmlns="http://www.w3.org/2000/svg" xmlns:xlink="http://www.w3.org/1999/xlink" x="0px" y="0px"
	 width="100%" viewBox="0 0 570 446" enable-background="new 0 0 570 446" xml:space="preserve">
<path fill="#FEFEFE" opacity="1.000000" stroke="none" 
	d="
M570.597046,200.979492 
	C571.000000,281.628784 570.979004,362.257568 571.078064,442.886230 
	C571.081970,446.061066 570.775513,447.109863 567.117371,447.107483 
	C379.705505,446.985382 192.293549,446.985352 4.881689,447.107574 
	C1.221600,447.109955 0.909257,446.059235 0.919985,442.885101 
	C1.044977,405.902832 1.000000,368.920013 1.000000,331.468658 
	C3.305583,330.945618 3.452635,332.976349 4.048666,334.373291 
	C6.264372,339.566376 10.055902,343.132660 15.138088,345.345856 
	C30.889256,352.205353 47.289921,354.317139 64.419807,353.007294 
	C79.691559,351.839569 94.922348,350.415039 110.133377,348.678040 
	C114.267349,348.205994 118.474129,348.024139 122.526352,347.237793 
	C127.765137,346.221161 131.798431,347.900635 136.034439,350.711761 
	C146.690964,357.783600 156.386337,366.208160 168.156754,371.737610 
	C190.096191,382.044220 213.026611,388.538452 236.991501,391.627808 
	C257.172455,394.229462 277.520782,395.985657 297.747986,394.296295 
	C309.508331,393.314056 318.561127,396.388367 328.069427,402.692505 
	C344.299377,413.453186 361.153442,423.380768 378.959900,431.396423 
	C403.931580,442.637451 429.916718,447.990784 457.283936,442.589722 
	C472.014465,439.682617 480.842651,430.380920 481.623749,417.876373 
	C482.121277,409.912231 480.754303,402.286560 477.925629,394.873871 
	C474.233978,385.199585 469.798767,375.897247 464.403656,367.041718 
	C461.234924,361.840576 461.704102,360.493347 467.245117,357.940491 
	C477.376556,353.272797 487.730988,349.090027 497.426056,343.492462 
	C509.430420,336.561646 519.073425,327.241425 527.702271,316.379913 
	C550.607849,287.547546 562.589111,254.599701 566.742798,218.362000 
	C567.411926,212.523697 567.198486,206.386215 570.597046,200.979492 
z"/>
<path fill="#696969" opacity="1.000000" stroke="none" 
	d="
M571.000000,200.532394 
	C568.306946,208.355042 568.123535,216.177612 567.251465,223.794434 
	C562.789673,262.764038 546.815369,296.583954 521.555176,326.089325 
	C510.760071,338.698547 496.167664,346.371399 481.151215,353.043976 
	C476.135559,355.272736 471.189758,357.686096 466.069336,359.641418 
	C462.917633,360.845001 462.533356,361.984131 464.353943,364.885529 
	C471.719025,376.623199 478.021057,388.924866 481.536530,402.403320 
	C484.986145,415.629333 483.990112,428.077118 472.466156,437.345398 
	C464.170593,444.017273 453.908020,445.349976 443.724335,445.800049 
	C417.134094,446.975311 392.277496,440.493469 368.905029,427.965363 
	C352.178925,418.999847 335.547363,409.795624 319.958923,399.007690 
	C314.906097,395.510895 310.443726,395.199890 304.962708,395.401764 
	C265.855988,396.841888 227.093445,395.054016 189.668015,381.962738 
	C177.386826,377.666809 165.330399,372.652130 154.462555,365.577026 
	C147.264648,360.891113 140.369614,355.593170 133.443405,350.432556 
	C130.490707,348.232513 127.605713,347.899506 124.127052,348.286224 
	C100.481300,350.914948 76.915016,354.564331 53.044552,354.556824 
	C40.275841,354.552826 27.922388,352.260040 16.096888,347.232269 
	C8.755793,344.111115 3.480060,339.312500 1.336089,331.140320 
	C1.000000,326.975464 1.000000,322.950897 1.000000,318.463196 
	C3.376402,295.981659 17.352743,281.607239 33.534016,268.710846 
	C39.021038,264.337708 45.065052,260.808899 51.176392,257.388824 
	C56.439529,254.443405 56.672108,253.908295 54.868317,248.324036 
	C49.119022,230.525131 44.523479,212.428452 43.010410,193.766144 
	C40.113178,158.031479 46.641487,124.511131 67.248711,94.378822 
	C87.514320,64.746025 115.371582,45.111958 148.168518,31.720520 
	C181.799683,17.988455 216.667435,8.840371 252.508194,3.227576 
	C260.410309,1.990074 268.374146,1.587016 276.679199,1.228959 
	C277.750000,1.000000 278.500000,1.000000 279.625000,1.000000 
	C285.728638,2.100623 291.507782,1.290968 297.630554,1.228230 
	C298.444458,1.000000 298.888885,1.000000 299.666687,1.000000 
	C305.582336,2.184408 311.235565,1.533103 316.839264,1.459227 
	C346.326447,1.070482 375.332520,4.723552 403.742920,12.398619 
	C428.676880,19.134527 453.423706,26.758713 475.807739,40.059822 
	C492.095734,49.738541 508.270264,59.598160 521.862549,73.254295 
	C535.629333,87.085739 545.460083,103.295914 553.514832,120.783516 
	C557.694641,129.858414 561.451965,139.111740 564.635132,148.601212 
	C568.422546,159.892136 570.805725,171.386719 570.770203,183.674744 
	C571.000000,189.354935 571.000000,194.709854 571.000000,200.532394 
z"/>
<path fill="#FEFEFE" opacity="1.000000" stroke="none" 
	d="
M276.531342,1.000000 
	C270.915985,3.321395 264.400208,2.893577 258.106598,3.876047 
	C225.697601,8.935285 193.895905,16.080896 163.056534,27.632866 
	C140.632950,36.032410 118.997063,45.574394 100.359818,60.866791 
	C57.860512,95.738678 39.307209,140.547791 44.722992,195.321457 
	C46.599438,214.299347 51.163727,232.638748 57.283272,250.606064 
	C58.490585,254.150787 57.768982,255.528137 54.704388,257.119720 
	C40.416809,264.539825 27.467415,273.752563 16.976311,286.146210 
	C9.194873,295.338806 3.845787,305.695862 1.329626,317.801453 
	C1.000000,213.743668 1.024262,109.487289 0.899052,5.231104 
	C0.894671,1.583323 1.701923,0.900893 5.262869,0.905621 
	C95.529358,1.025471 185.796036,1.000000 276.531342,1.000000 
z"/>
<path fill="#FEFEFE" opacity="1.000000" stroke="none" 
	d="
M571.000000,183.531342 
	C569.657104,176.757812 568.836853,169.371277 566.883362,162.297714 
	C556.971863,126.408386 542.874634,92.560669 513.707214,67.720810 
	C491.673676,48.956379 466.704529,34.834606 439.311371,24.957174 
	C396.640961,9.571079 352.785034,1.589502 307.401093,2.140584 
	C305.081940,2.168745 302.758972,1.884855 300.218872,1.373127 
	C388.914154,1.000000 477.828369,1.026185 566.742371,0.904656 
	C570.314270,0.899773 571.110535,1.598426 571.101685,5.234570 
	C570.958252,64.510345 571.000000,123.786560 571.000000,183.531342 
z"/>
<path fill="#B8B8B8" opacity="1.000000" stroke="none" 
	d="
M297.532043,1.000000 
	C292.238495,3.003299 286.350983,1.762562 280.254211,1.339684 
	C285.688049,1.000000 291.376068,1.000000 297.532043,1.000000 
z"/>
<path fill="#FEFEFE" opacity="1.000000" stroke="none" 
	d="
M104.245888,76.822083 
	C97.739792,91.879280 96.722549,106.709717 102.988739,121.729637 
	C110.099190,138.773239 122.765167,150.800873 138.338593,159.862885 
	C170.593521,178.631699 205.503448,190.216858 242.072037,196.980515 
	C273.833710,202.855087 305.860748,204.476578 338.050201,201.870743 
	C379.122131,198.545853 418.874603,189.550522 456.732910,173.024368 
	C460.576996,171.346344 462.487274,172.058823 464.994202,174.992828 
	C504.939514,221.743271 509.264587,288.974274 475.483032,340.255676 
	C474.405884,341.890808 473.352295,343.545837 471.318329,344.394806 
	C457.961456,349.970032 444.472961,355.191345 430.747589,359.789978 
	C430.136566,359.994751 429.426575,359.903961 428.371521,360.027008 
	C418.194000,361.905426 408.454315,363.957306 398.792603,366.314545 
	C383.863831,369.956818 368.405396,369.613403 353.386078,372.642517 
	C348.578186,373.612183 343.440674,373.065613 338.520386,373.054504 
	C323.516174,373.020691 308.633850,374.542999 293.699432,375.375000 
	C287.017303,375.747253 280.411530,375.049774 273.846649,373.729706 
	C260.098816,370.965363 246.101669,370.484833 232.169922,369.733704 
	C220.291061,369.093292 209.375900,365.162567 198.376144,361.357147 
	C192.085220,359.180786 185.972137,356.472229 179.650742,354.399323 
	C159.235413,347.704620 142.328445,334.773438 124.540276,323.461517 
	C118.544823,319.648865 115.295624,312.606628 109.153305,308.651215 
	C103.163757,304.794312 98.304008,299.303192 91.340546,296.108643 
	C81.165604,277.707245 73.064621,258.842255 66.755379,239.201096 
	C60.529221,219.818649 56.350479,200.077988 55.995838,179.637421 
	C55.280785,138.423248 70.938614,104.336143 100.871407,76.454025 
	C101.358215,76.000565 101.837326,75.538834 102.630592,74.941086 
	C103.729370,75.086746 104.127396,75.708878 104.245888,76.822083 
z"/>
<path fill="#FFFFFF" opacity="1.000000" stroke="none" 
	d="
M417.333282,30.586254 
	C431.850800,35.196571 446.078003,39.759689 458.995605,46.982624 
	C472.347992,54.448689 486.353638,61.379581 495.125519,75.117760 
	C506.158081,92.396545 505.904633,112.200676 493.740143,129.894714 
	C482.756622,145.870956 467.141815,155.871277 449.654297,163.061050 
	C414.798798,177.391525 378.490662,185.874084 340.943848,189.213730 
	C284.930420,194.195892 230.718384,186.634338 178.433350,165.927780 
	C161.692749,159.297989 145.379974,151.631271 131.567307,139.747589 
	C119.526703,129.388489 111.037552,116.918198 111.216629,100.269508 
	C111.367424,86.251007 118.345932,75.210915 127.672462,65.477478 
	C138.329132,54.355858 151.351196,46.747986 165.317764,40.534397 
	C169.606049,38.626568 174.284988,38.896912 178.639526,36.888046 
	C198.705139,27.631248 220.182663,23.087683 241.760162,19.054663 
	C258.628906,15.901749 275.553802,13.475970 292.822571,13.808544 
	C331.659210,14.556479 370.342163,16.320032 407.859619,27.811804 
	C410.878021,28.736361 413.926147,29.563778 417.333282,30.586254 
z"/>
<path fill="#FDFDFD" opacity="1.000000" stroke="none" 
	d="
M408.714386,379.253723 
	C421.555969,376.238892 433.671570,372.156097 445.594879,367.569946 
	C449.497314,366.068939 451.349213,366.849884 453.407196,370.317841 
	C459.610992,380.771912 465.507446,391.380096 468.996918,403.059662 
	C474.640869,421.950562 467.583344,431.523865 447.798065,433.053741 
	C422.904480,434.978577 399.597687,429.487061 377.427155,418.556152 
	C369.687225,414.740082 362.202911,410.402802 354.637817,406.238220 
	C353.567688,405.649109 351.999390,405.454712 351.976929,403.393616 
	C358.405304,399.664978 365.518311,398.672028 372.233368,396.473114 
	C382.926544,392.971558 393.533081,389.342438 403.621002,384.272583 
	C405.930084,383.112152 406.603790,380.823456 408.714386,379.253723 
z"/>
<path fill="#515151" opacity="1.000000" stroke="none" 
	d="
M91.039650,296.193939 
	C92.702431,295.393402 94.071747,294.776764 95.851669,296.305298 
	C102.410362,301.937592 110.250237,306.404694 115.735687,312.893127 
	C127.696693,327.041077 144.256363,334.469910 159.254044,343.900848 
	C172.818146,352.430328 189.033661,355.978485 203.965454,361.999023 
	C219.778168,368.374786 236.400543,368.812500 252.969574,369.798737 
	C263.796387,370.443207 274.364655,373.822815 285.106262,373.753876 
	C305.203705,373.624786 325.309387,372.540070 345.381714,371.348663 
	C366.086273,370.119781 386.725708,367.972717 406.948578,363.110382 
	C413.603882,361.510223 420.206696,360.006531 427.529449,360.059753 
	C425.448090,364.054871 420.730225,363.262482 417.144989,364.946075 
	C410.758240,367.945221 403.734497,369.527863 398.071350,374.151123 
	C396.769623,375.213776 394.682983,375.749298 392.947784,375.771759 
	C385.270142,375.871307 378.155670,379.623505 370.384430,379.091827 
	C369.159119,379.007965 367.669189,379.512512 366.649475,380.235596 
	C360.160919,384.836823 352.691254,385.126556 345.257996,384.947357 
	C331.764923,384.621918 318.511658,386.512604 305.323456,388.883240 
	C301.939117,389.491608 299.861847,386.804626 296.786621,386.963562 
	C285.157501,387.564575 273.599823,385.779205 261.953094,385.867218 
	C249.150864,385.963989 236.421310,384.647156 223.730301,382.424500 
	C218.730469,381.548859 213.565079,380.279968 207.856888,381.577301 
	C202.526443,382.788818 197.209747,378.644318 192.391586,375.824615 
	C176.687927,366.634552 161.401993,356.767334 146.316788,346.594635 
	C139.231781,341.816833 134.107391,334.647369 126.394234,330.554047 
	C119.872063,327.092804 113.915489,322.618591 108.519859,317.618866 
	C102.956039,312.463257 97.950836,306.699463 92.783875,301.125122 
	C91.659416,299.911987 90.934479,298.355133 91.039650,296.193939 
z"/>
<path fill="#FDFDFD" opacity="1.000000" stroke="none" 
	d="
M95.473694,338.759705 
	C74.835838,341.359314 54.375645,344.468384 33.820320,340.066376 
	C30.762754,339.411591 27.744484,338.401398 24.841846,337.225372 
	C13.480697,332.622375 11.469157,328.372894 14.581758,316.410675 
	C17.903143,303.646118 26.015196,294.082001 35.364513,285.409393 
	C42.705204,278.600037 50.997807,273.107300 59.786980,268.287872 
	C62.629185,266.729370 63.674938,267.167450 64.823822,270.025360 
	C68.667770,279.587463 73.273750,288.795685 78.613602,297.970276 
	C81.738251,300.208832 83.307159,303.261963 83.971237,306.422150 
	C86.001854,316.085266 89.802216,325.014618 94.279045,333.722565 
	C95.029930,335.183075 95.855873,336.654755 95.473694,338.759705 
z"/>
<path fill="#FCFCFC" opacity="1.000000" stroke="none" 
	d="
M557.729492,203.558029 
	C555.508972,223.651657 552.185669,243.041611 545.407349,261.768066 
	C545.249695,249.843369 544.679565,238.000549 543.005615,226.216705 
	C539.159668,199.142944 530.802551,174.074509 511.152405,154.017136 
	C508.265991,151.070862 505.061493,148.349792 501.665771,146.017136 
	C499.102478,144.256317 498.907410,143.172424 500.817444,140.658646 
	C510.469849,127.955124 515.934021,113.787834 515.168152,97.555679 
	C514.989319,93.766029 514.557861,90.043655 513.294434,86.006500 
	C517.200867,86.588028 518.542603,89.714546 520.364197,91.959984 
	C533.751587,108.462265 542.190308,127.610535 549.616333,147.286575 
	C556.414612,165.299255 559.579285,183.833832 557.729492,203.558029 
z"/>
<path fill="#515151" opacity="1.000000" stroke="none" 
	d="
M408.853821,378.837219 
	C408.066223,386.803802 400.677246,387.056976 395.897430,389.199799 
	C382.141357,395.366791 367.666260,399.804810 352.478668,403.037506 
	C344.756653,405.786530 335.846924,401.720490 332.612823,396.990936 
	C331.333099,395.119507 330.640747,393.313965 331.952423,391.020050 
	C333.334381,388.603149 334.994781,389.543701 337.028412,389.750916 
	C345.134064,390.576904 353.212402,389.825867 361.211243,388.393066 
	C370.431000,386.741608 379.393036,384.231293 388.333771,381.338257 
	C394.730042,379.268524 401.834808,379.388153 408.853821,378.837219 
z"/>
<path fill="#515151" opacity="1.000000" stroke="none" 
	d="
M95.561607,339.337646 
	C92.472824,331.522308 88.097061,324.634979 85.467888,316.937286 
	C83.401947,310.888611 83.091560,304.207764 78.995117,298.503235 
	C80.526352,295.028778 82.751244,295.551605 84.271111,297.873505 
	C91.037880,308.211060 100.553574,316.277435 107.532181,326.495422 
	C110.016075,330.132294 111.780518,334.395050 115.227196,337.462646 
	C116.713936,338.785828 116.125900,341.379211 114.419342,341.463074 
	C108.172005,341.770111 101.613815,343.961151 95.561607,339.337646 
z"/>
<path fill="#EAEAEA" opacity="1.000000" stroke="none" 
	d="
M104.376373,76.981377 
	C103.802635,76.596733 103.487282,76.011131 103.056549,75.113373 
	C103.628113,74.114464 104.315056,73.427704 105.267029,72.605713 
	C105.703873,72.543488 105.875687,72.616516 106.137978,72.954544 
	C105.697227,74.406509 105.165993,75.593460 104.376373,76.981377 
z"/>
<path fill="#EAEAEA" opacity="1.000000" stroke="none" 
	d="
M105.700256,72.663223 
	C106.111359,72.161392 106.803825,71.583954 106.452057,73.086121 
	C106.108452,73.098366 105.988457,72.977180 105.700256,72.663223 
z"/>
<path fill="#686868" opacity="1.000000" stroke="none" 
	d="
M243.736023,264.403534 
	C259.040649,270.093872 269.818176,280.857727 276.004852,295.549011 
	C281.664764,308.989502 275.225189,326.276398 262.903656,337.221436 
	C252.012451,346.895905 239.235794,347.889526 225.895996,346.739868 
	C212.566116,345.591156 199.774521,341.920807 187.331131,337.043121 
	C176.522125,332.806091 167.117065,325.719879 162.708588,315.498199 
	C154.527496,296.529175 156.447281,273.018921 179.368423,262.145477 
	C186.588470,258.720398 194.136139,256.081818 202.764130,256.453217 
	C203.607620,260.133759 200.512177,261.711212 198.875992,264.007355 
	C194.864990,269.636200 194.623215,272.673431 198.405212,278.425781 
	C201.430313,283.026886 205.053467,287.031647 209.469452,290.365417 
	C211.010956,291.529144 212.718964,292.698730 213.503601,295.027100 
	C213.382965,296.881500 212.170197,297.580719 211.269028,298.397736 
	C213.284683,298.035522 214.996292,298.875549 215.664581,300.654388 
	C220.711029,314.086823 232.693756,317.933624 244.648575,321.804382 
	C250.655075,323.749207 256.701996,323.893372 261.720001,321.959106 
	C246.435196,322.688202 231.865173,318.717865 219.909393,307.160706 
	C216.705261,304.063416 214.876053,300.237061 215.454376,295.277405 
	C221.130508,292.276733 227.318710,291.183197 232.371368,287.437958 
	C235.176468,285.358704 237.998978,283.385620 240.445297,280.826752 
	C244.266861,276.829407 245.648193,272.442413 243.750015,267.155731 
	C243.466354,266.365723 243.336761,265.547363 243.736023,264.403534 
z"/>
<path fill="#222222" opacity="1.000000" stroke="none" 
	d="
M213.346268,295.448914 
	C208.192520,290.528137 202.591263,286.639313 198.584930,281.026062 
	C192.971130,273.160583 192.832947,270.259705 198.655899,262.576141 
	C200.051971,260.733948 201.613266,259.016968 203.141083,256.923828 
	C217.491348,253.851379 231.056671,255.316238 243.679306,263.891998 
	C248.816696,274.555603 244.868027,279.095947 237.432587,285.276276 
	C231.412445,290.280212 224.703217,294.197906 216.217575,295.060486 
	C215.189026,295.715942 214.459808,295.808685 213.346268,295.448914 
z"/>
<path fill="#252525" opacity="1.000000" stroke="none" 
	d="
M344.834961,258.755127 
	C341.737030,260.407806 338.953217,261.865784 335.908844,263.460205 
	C338.660431,267.439301 341.261475,271.282288 343.950165,275.062958 
	C346.082520,278.061279 346.424835,281.106110 343.344666,283.410797 
	C340.188690,285.772278 336.713806,285.753662 334.098236,282.347809 
	C331.368042,278.792694 328.778778,275.115570 326.349854,271.348663 
	C325.109741,269.425415 324.094116,269.117340 322.053528,270.278778 
	C318.599945,272.244476 314.971100,273.917572 311.350616,275.570587 
	C307.625122,277.271576 304.307129,276.502655 302.494232,272.770325 
	C300.633270,268.938873 302.160004,266.123749 306.091339,264.429840 
	C309.134918,263.118408 311.999939,261.391418 315.047333,260.090363 
	C317.315521,259.121979 317.126862,257.996979 315.893188,256.342407 
	C313.907501,253.679306 312.012054,250.948929 310.079529,248.246246 
	C307.744110,244.980164 307.208557,241.823547 310.949219,239.209366 
	C314.205505,236.933716 317.820801,237.791901 320.442810,241.398071 
	C322.589752,244.350784 324.749054,247.307739 326.669373,250.407471 
	C328.047699,252.632370 329.308472,253.189667 331.737457,251.733292 
	C335.577850,249.430695 339.622833,247.458725 343.638580,245.462173 
	C347.700653,243.442581 351.331390,244.355103 352.974335,247.802063 
	C354.876404,251.792633 353.266693,254.462463 349.550598,256.254242 
	C348.059448,256.973236 346.614868,257.788788 344.834961,258.755127 
z"/>
<path fill="#252525" opacity="1.000000" stroke="none" 
	d="
M147.708282,228.808136 
	C150.107620,227.011139 148.088913,225.665253 147.608429,224.312729 
	C146.835281,222.136353 145.430847,220.159424 144.830704,217.952057 
	C143.852539,214.354187 145.566177,211.833084 148.908554,210.469788 
	C152.112488,209.162933 154.225708,210.592285 155.957947,213.313858 
	C157.852661,216.290726 158.018677,221.505203 161.447464,221.993683 
	C164.552231,222.436035 168.121170,219.573944 171.495697,218.193939 
	C172.723267,217.691925 174.010590,217.329361 175.218262,216.786591 
	C178.400406,215.356461 181.272446,215.555435 182.718018,219.037262 
	C184.199860,222.606354 183.674820,226.053680 179.859314,227.977661 
	C176.309967,229.767410 172.654144,231.420502 168.897842,232.701736 
	C165.901749,233.723663 165.680405,235.002380 167.583954,237.188248 
	C168.454300,238.187714 169.274887,239.234467 170.192520,240.188095 
	C172.909302,243.011475 172.561096,246.136673 170.303741,248.716888 
	C168.064682,251.276169 164.961365,251.105682 162.114105,249.351501 
	C159.325867,247.633682 157.481583,245.006897 156.315033,242.059326 
	C155.217331,239.285706 153.861893,239.179276 151.523987,240.558533 
	C149.391708,241.816467 147.045197,242.718597 144.770172,243.725708 
	C140.225586,245.737518 136.895905,244.793030 135.206696,240.877335 
	C133.234314,236.305191 136.016800,234.136581 139.677979,232.482986 
	C142.246262,231.323013 144.798767,230.128067 147.708282,228.808136 
z"/>
<path fill="#F0F0F0" opacity="1.000000" stroke="none" 
	d="
M212.953949,295.569916 
	C213.717484,295.218994 214.416016,295.187805 215.465057,295.161438 
	C216.871994,308.366486 227.435013,312.558685 237.229446,316.824890 
	C245.622406,320.480621 254.664963,322.201935 263.981537,320.111542 
	C264.821991,319.922943 265.891052,319.507416 266.982819,320.930481 
	C260.093781,325.059662 252.991486,325.173645 245.604706,323.279297 
	C238.316727,321.410309 231.654816,318.185150 225.028427,314.652344 
	C218.213531,311.018982 217.228333,302.422211 211.075989,297.939362 
	C211.235931,297.758545 212.062439,296.824097 212.953949,295.569916 
z"/>
<path fill="#EAEAEA" opacity="1.000000" stroke="none" 
	d="
M177.840469,307.624756 
	C188.742111,308.970947 199.152237,309.061859 208.534637,300.683289 
	C204.583420,310.160736 191.304398,313.580109 178.380981,309.013794 
	C177.905502,308.582062 177.782562,308.308990 177.840469,307.624756 
z"/>
<path fill="#D9D9D9" opacity="1.000000" stroke="none" 
	d="
M177.733017,307.096497 
	C178.026367,307.487183 178.031403,307.760742 178.032440,308.444702 
	C174.847214,308.160034 172.091751,306.500549 169.039688,304.752686 
	C168.795074,304.304169 168.781769,304.091949 169.085876,303.848328 
	C172.083755,304.871063 174.764221,305.925201 177.733017,307.096497 
z"/>
<path fill="#F0F0F0" opacity="1.000000" stroke="none" 
	d="
M167.746735,303.535980 
	C166.805344,302.984802 164.980606,302.839722 165.929626,301.412231 
	C166.429596,300.660187 167.187210,301.893860 167.985580,302.550018 
	C168.100433,303.044586 168.053741,303.230042 167.746735,303.535980 
z"/>
<path fill="#F0F0F0" opacity="1.000000" stroke="none" 
	d="
M163.106995,299.122040 
	C162.107346,298.669281 161.760635,298.045013 162.425095,297.284943 
	C162.460709,297.244202 163.069046,297.704163 163.574554,298.196289 
	C163.633179,298.652985 163.528076,298.844391 163.106995,299.122040 
z"/>
<path fill="#F0F0F0" opacity="1.000000" stroke="none" 
	d="
M164.260269,299.447449 
	C164.874908,299.894562 166.207886,300.785095 163.935898,300.556732 
	C163.812866,300.065247 163.898529,299.855469 164.260269,299.447449 
z"/>
<path fill="#F0F0F0" opacity="1.000000" stroke="none" 
	d="
M167.968475,303.047302 
	C168.465820,303.025421 168.784515,303.191711 169.253235,303.587463 
	C169.403275,303.816895 169.018448,304.089844 168.913422,304.303131 
	C168.500793,304.342468 168.193207,304.168488 167.686020,303.825500 
	C167.587555,303.516144 167.688690,303.375824 167.968475,303.047302 
z"/>
<path fill="#F0F0F0" opacity="1.000000" stroke="none" 
	d="
M163.944290,300.030273 
	C163.463181,300.080170 163.199158,299.885315 162.863083,299.449402 
	C162.939728,299.074188 163.088440,298.940033 163.487732,298.633728 
	C163.962616,298.584778 164.156555,298.744812 164.428223,299.095459 
	C164.411362,299.427917 164.286362,299.606689 163.944290,300.030273 
z"/>
<path fill="#D9D9D9" opacity="1.000000" stroke="none" 
	d="
M232.315674,269.980377 
	C233.363159,270.799011 234.484650,272.026337 233.811722,272.505890 
	C231.550980,274.116913 230.898132,270.764404 228.919495,270.837280 
	C229.808640,269.368713 230.798370,269.221222 232.315674,269.980377 
z"/>
</svg>