<svg xmlns="http://www.w3.org/2000/svg" xmlns:xlink="http://www.w3.org/1999/xlink" version="1.1" id="Layer_1" x="0px" y="0px" width="100%" viewBox="0 0 512 512" enable-background="new 0 0 512 512" xml:space="preserve">

<path fill="#ffffff" opacity="1.000000" stroke="none" d=" M212.531342,1.000000   C214.962799,3.632988 218.078201,3.280297 220.754044,3.794965   C254.616776,10.308125 284.227112,25.190090 309.854614,48.273163   C336.664124,72.420929 355.147583,101.728149 364.632446,136.488983   C375.257141,175.427261 373.296417,213.918320 359.100006,251.739822   C352.376526,269.652222 342.942902,286.015564 331.072266,301.016449   C329.662964,302.797394 326.605103,304.454865 328.369019,307.351898   C330.198914,310.357330 332.714294,312.895294 336.715118,312.917633   C341.379974,312.943665 346.049530,313.119629 350.708099,312.963440   C354.634857,312.831787 357.671112,314.094177 360.486023,316.917938   C399.186737,355.739868 438.006592,394.443115 476.700470,433.271820   C488.422241,445.034424 489.671295,461.831635 480.676514,474.166290   C470.378967,488.287506 448.688019,491.812714 433.785614,477.184265   C413.929657,457.693329 394.377167,437.893188 374.700836,418.219360   C355.731201,399.252289 336.827911,380.218170 317.749847,361.360840   C314.416443,358.066040 312.646881,354.634369 312.951111,349.912323   C313.218292,345.765442 312.984406,341.585602 312.954010,337.420441   C312.939117,335.383362 312.515686,333.515015 311.200897,331.824402   C307.574646,327.161591 306.264771,327.143677 301.650116,330.728912   C275.783783,350.824799 246.902267,364.150696 214.355072,368.997467   C180.883530,373.981903 148.271301,370.832642 116.783821,358.089539   C95.903740,349.639343 77.321274,337.661438 60.691368,322.361267   C32.247093,296.191437 13.900256,264.331360 4.928854,226.864929   C3.855703,222.383209 4.253621,217.516464 1.283389,213.219864   C1.000000,195.312439 1.000000,177.624878 1.000000,159.468658   C2.659892,154.837921 2.148392,150.400208 2.689980,146.095627   C4.066061,135.158493 7.713412,124.831680 11.877884,114.705650   C22.226624,89.542427 37.292656,67.553986 57.093208,48.903702   C79.707352,27.603287 106.111656,12.922235 136.006424,4.504672   C143.014114,2.531494 150.336670,2.799820 157.720398,1.255111   C176.020889,1.000000 194.041794,1.000000 212.531342,1.000000  z"/>

<path fill="#202020" opacity="1.000000" stroke="none" d=" M74.994308,123.035477   C98.219551,84.281898 132.031525,62.734684 176.696075,59.002312   C211.796524,56.069160 242.791183,66.724525 269.302368,89.786736   C297.888367,114.653809 312.278198,146.250626 313.038361,184.178467   C313.655151,214.953049 304.362061,242.370651 284.874329,265.986542   C260.125763,295.977661 228.263489,312.068878 189.031036,313.032837   C152.170547,313.938477 120.635559,301.104553 94.963478,275.164459   C73.167206,253.140640 61.049274,226.226440 58.840477,194.908600   C57.036839,169.335342 62.732616,145.700165 74.994308,123.035477  z"/>
<path fill="#ffffff" opacity="1.000000" stroke="none" d=" M200.949707,239.700928   C200.553696,245.779083 199.599258,251.183411 194.421082,254.574127   C189.563309,257.755066 184.199768,257.967590 179.138138,255.597961   C173.697983,253.051102 171.172745,248.112320 171.093216,242.184326   C170.943512,231.023956 171.037735,219.860519 170.984116,208.698593   C170.949966,201.589462 170.401001,201.048691 163.228134,201.015152   C152.899109,200.966873 142.568192,201.080139 132.241226,200.920776   C125.249809,200.812897 118.905647,199.008362 115.713150,191.936935   C111.208649,181.959457 118.189117,171.485809 129.834839,171.126724   C140.986984,170.782867 152.156998,171.038345 163.318924,170.983948   C170.411118,170.949387 170.951553,170.396988 170.985352,163.210617   C171.037857,152.048721 170.790848,140.878906 171.134369,129.726746   C171.467560,118.910583 180.421799,112.180367 190.151184,115.117981   C195.480255,116.726997 199.014969,120.267609 200.048187,125.915283   C201.954117,136.333450 200.780243,146.853500 200.946060,157.324280   C201.183441,172.313126 199.748306,170.939453 214.785049,170.996292   C224.114243,171.031570 233.448914,170.873032 242.770844,171.148727   C249.362762,171.343689 255.655380,176.244141 256.760590,181.389725   C258.337189,188.730209 255.781403,195.322739 249.816879,198.687134   C246.248123,200.700150 242.209747,200.955368 238.205765,200.975204   C228.043304,201.025589 217.880112,200.956177 207.717972,201.033829   C201.847107,201.078690 201.069916,201.859528 201.024689,207.749496   C200.944092,218.244827 200.977844,228.741013 200.949707,239.700928  z"/>
</svg>
